<?xml version="1.0" encoding="UTF-8" standalone="no"?><!DOCTYPE svg PUBLIC "-//W3C//DTD SVG 1.1//EN" "http://www.w3.org/Graphics/SVG/1.1/DTD/svg11.dtd"><svg width="100%" height="100%" viewBox="0 0 2129 809" version="1.1" xmlns="http://www.w3.org/2000/svg" xmlns:xlink="http://www.w3.org/1999/xlink" xml:space="preserve" xmlns:serif="http://www.serif.com/" style="fill-rule:evenodd;clip-rule:evenodd;stroke-linejoin:round;stroke-miterlimit:2;"><path d="M162.519,186.552c-8.792,0 -11,5.496 -11,9.875l8.833,356.788c0,3.292 2.204,8.792 6.583,8.792l26.333,-1.083c13.167,0 17.583,-8.792 18.667,-20.875l1.083,-330.417c1.083,-13.204 -2.208,-25.25 -21.958,-24.167l-28.542,1.087Zm43.879,-149.292c122.958,-5.462 161.375,46.121 159.167,160.292l-9.879,349.079c-3.292,95.5 -40.583,151.5 -150.371,155.875l-137.208,5.5c-39.504,2.171 -53.796,-23.079 -54.879,-59.292l-13.167,-546.704c-1.125,-36.208 13.167,-53.792 51.583,-54.875l154.754,-9.875Z" style="fill:#141314;fill-rule:nonzero;"/><path d="M662.452,25.182c25.25,1.088 37.333,12.083 38.417,45l0,40.625c0,27.458 -7.704,42.833 -37.329,43.917l-51.587,2.208c-37.333,3.292 -45,-13.204 -45,-46.125l0,-52.704c0,-24.129 12.083,-37.296 36.25,-36.213l59.25,3.292Zm-93.292,454.458l-27.458,0c-8.788,0 -15.375,7.708 -15.375,17.583l0,81.246c0,9.917 2.208,17.583 13.167,17.583l18.667,0c12.083,0 20.875,-8.792 20.875,-19.75l-2.208,-84.542c0,-6.583 -2.167,-12.083 -7.667,-12.083l0,-0.038Zm-64.792,-454.458c25.25,1.088 37.333,12.083 37.333,45l0,40.625c2.208,28.542 -7.667,42.833 -35.125,43.917l-53.792,2.208c-37.333,2.167 -45,-13.204 -45,-46.125l0,-52.704c0,-24.129 12.083,-37.296 38.417,-36.213l58.167,3.292Zm108.671,175.625c62.579,0 82.333,37.333 82.333,92.208l9.875,387.5c0,17.583 -7.671,27.458 -27.421,27.458l-82.333,0c-10.958,0 -16.458,-2.208 -16.458,-15.375l0,-4.375c0,-5.5 -5.5,-5.5 -8.792,0c-9.875,15.371 -32.917,19.75 -54.875,19.75l-36.25,0c-50.458,0 -75.708,-35.125 -74.625,-82.333l4.417,-178.917c0,-50.5 25.246,-79.042 82.333,-79.042l73.542,0c7.667,0 7.667,-5.5 7.667,-12.083l0,-19.75c0,-19.75 -7.667,-21.958 -19.75,-21.958l-108.667,12.083c-12.083,3.292 -29.667,-1.083 -27.458,-23.042l3.292,-72.458c0,-15.375 6.583,-24.167 20.875,-24.167l172.296,-5.5Z" style="fill:#141314;fill-rule:nonzero;"/><path d="M859.291,204.076c19.75,1.083 23.042,6.583 23.042,16.458l0,4.417c0,7.667 3.292,8.792 10.958,6.579l40.625,-17.579c19.75,-8.792 39.5,-13.167 57.083,-13.167c48.296,0 83.421,31.833 82.333,98.792l-13.167,385.329c0,17.546 -7.671,23.042 -25.25,23.042l-85.625,0c-17.583,0 -27.458,-4.375 -25.25,-25.246l9.875,-315.042c0,-19.754 -5.5,-30.75 -24.167,-25.25l-19.75,2.204c-7.667,0 -9.875,5.5 -9.875,13.171l-2.208,279.913c0,16.462 -8.75,23.046 -23.042,23.046l-79.042,0c-14.25,0 -24.125,-2.171 -26.333,-23.046l-7.667,-412.746c0,-19.792 6.583,-25.254 21.958,-24.167l95.5,3.292Z" style="fill:#141314;fill-rule:nonzero;"/><path d="M1285.009,303.221l-27.454,0c-8.796,0 -13.171,2.983 -13.171,13.929l6.588,231.796c0,4.987 4.371,7.967 9.875,7.967l25.25,0c6.583,0 8.787,-2.979 8.787,-7.967l1.083,-233.758c1.125,-7.967 -2.167,-11.933 -10.958,-11.933l0,-0.033Zm79.042,-102.442c43.912,-0.983 64.792,19.9 62.583,59.696l-7.671,350.167c0,27.867 -16.458,44.779 -50.496,45.763l-92.208,2c-17.583,0 -25.25,9.971 -24.171,21.9c0,10.95 8.796,18.917 25.25,18.917l120.754,-2.004c20.871,-1.013 25.25,8.954 21.958,23.867l-13.167,64.646c-4.417,13.929 -7.708,22.875 -27.463,22.875l-170.162,0c-57.079,0 -85.621,-34.812 -88.917,-71.621c0,-27.867 10.958,-56.717 36.208,-76.612c-20.833,-5.967 -29.625,-21.863 -29.625,-43.763l-13.167,-350.167c-1.125,-40.779 16.458,-58.679 61.458,-58.679l188.833,-6.983Z" style="fill:#141314;fill-rule:nonzero;"/><path d="M1614.201,313.866c-8.787,0 -13.204,3.292 -13.167,15.333l6.583,255.792c0,5.5 2.208,8.792 8.792,8.792l26.333,0c5.462,0 7.671,-2.208 7.671,-8.792l2.208,-257.958c0,-8.75 -3.296,-14.254 -13.171,-14.254l-25.25,1.087Zm106.5,-113.046c45,-1.121 62.546,21.963 61.458,64.754l-7.667,387.5c0,30.75 -15.375,49.412 -50.5,50.5l-195.413,4.371c-32.958,1.125 -46.129,-18.663 -47.208,-48.288l-12.088,-386.417c0,-45 18.671,-64.75 62.588,-64.75l188.829,-7.671Z" style="fill:#141314;fill-rule:nonzero;"/><path d="M765.484,104.193c-1.538,0.196 -2.117,0.962 -2.117,2.117l0,20.754c0,1.346 0.775,1.921 2.117,1.921l10.571,0.387c3.071,0.192 4.612,-1.542 4.612,-4.233l0,-15.379c0,-4.221 -2.692,-7.492 -7.5,-6.917l-7.683,1.35Zm-0.575,-48.054c-1.154,0 -1.542,0.962 -1.542,1.729l0,23.254c0,0.958 0.579,1.346 1.729,1.346l6.917,-1.154c4.042,-0.575 5.962,-1.917 5.962,-6.725l0,-14.8c0,-2.308 -0.962,-4.038 -3.846,-4.038l-9.221,0.388Zm16.333,-22.312c10.571,-0.188 18.263,4.425 18.263,18.075l0.188,18.263c-0.188,12.1 -3.646,16.333 -10.758,20.175c-1.542,0.771 -1.542,2.117 0,2.883c10.375,3.458 13.454,11.15 13.454,23.833l0,16.533c0,13.454 -8.079,18.65 -18.837,17.683l-33.642,-2.304c-4.808,-0.379 -8.079,-3.071 -8.079,-7.492l0,-97.258c0,-5 2.696,-8.654 8.846,-8.846l30.567,-1.546Z" style="fill:#141314;fill-rule:nonzero;"/><path d="M835.438,93.419c-0.196,0.962 0.192,1.537 1.342,1.537l9.996,0c0.775,0 1.538,-0.575 1.342,-1.533l-4.033,-36.517c-0.196,-0.771 -0.575,-1.346 -1.538,-1.154l-2.496,0.187c-0.962,0 -1.542,0.192 -1.542,1.346l-3.071,36.133Zm-16.533,-50.163c0.579,-4.425 2.692,-7.117 7.304,-7.496l28.454,-1.925c4.608,-0.387 7.304,2.504 7.879,6.346l13.263,104.371c0.575,3.654 -0.771,5.196 -3.654,5.383l-14.804,1.154c-3.267,0.379 -4.996,-0.963 -5.188,-3.654l-2.5,-29.408c0,-0.767 -0.962,-1.342 -1.542,-1.342l-12.3,0c-0.771,0 -1.35,0.379 -1.538,1.342l-1.542,23.067c-0.188,3.079 -2.108,4.612 -5.188,4.425l-14.604,-0.967c-3.458,-0.196 -4.808,-1.925 -4.421,-5.383l10.379,-95.913Z" style="fill:#141314;fill-rule:nonzero;"/><path d="M921.566,42.285c5.383,0.383 5.575,3.267 7.112,7.692l14.229,39.013c0.762,1.921 2.879,1.533 2.879,-0.383c-0.575,-16.146 -1.35,-24.025 -2.117,-48.246c-0.188,-4.233 1.346,-5.963 5.575,-6.154l9.996,-0.383c3.846,0 6.15,1.154 6.15,5.383l0.192,97.454c0,3.846 -1.929,6.537 -5.388,6.537l-9.608,0.188c-4.996,0.192 -5.958,-2.113 -7.879,-6.725l-14.225,-39.017c-0.575,-1.537 -2.304,-1.342 -2.304,0.575c0.383,12.688 1.538,32.104 2.113,48.058c0,2.504 -1.925,4.233 -4.421,4.421l-12.688,0.575c-2.496,0.196 -4.417,-1.342 -4.608,-4.613l-2.117,-98.217c0,-4.425 1.342,-6.917 6.725,-6.729l10.383,0.571Z" style="fill:#141314;fill-rule:nonzero;"/><path d="M993.494,34.609c4.233,0.379 5.575,2.108 5.575,6.342l0,104.375c0,3.075 -0.963,4.613 -4.808,5.188l-12.492,0.767c-3.267,0.387 -4.808,-1.729 -4.808,-4.421l0,-107.638c0,-4.046 1.729,-5.575 5.575,-5.387l10.958,0.775Z" style="fill:#141314;fill-rule:nonzero;"/><path d="M1071.974,56.137c-0.954,0 -1.342,0.767 -1.342,1.729l1.342,70.542c0,0.963 0.379,1.538 1.342,1.538l11.725,-0.383c0.767,0 1.342,-0.775 1.342,-1.542l0,-70.537c0,-1.154 -0.575,-1.729 -1.537,-1.729l-12.871,0.383Zm25.571,-22.296c7.304,0 11.337,3.271 11.15,10.383l-1.542,96.879c0,1.917 0.192,3.458 0.767,5.188l4.421,9.804c1.542,3.267 0.575,5.196 -2.692,6.533l-9.229,4.037c-1.35,0.379 -2.5,0.767 -3.654,0.767c-2.117,0 -3.65,-0.963 -4.613,-3.458l-4.229,-9.996c-1.154,-2.5 -2.308,-3.079 -4.612,-3.079l-23.646,0.388c-6.921,0.192 -9.229,-3.654 -9.229,-9.421l-2.304,-97.454c-0.196,-6.15 2.117,-8.842 8.454,-9.225l40.958,-1.346Z" style="fill:#141314;fill-rule:nonzero;"/><path d="M1135.244,42.487c4.042,0 5.383,2.692 5.383,5.383c0.387,31.912 1.542,51.904 2.117,75.929c0,3.654 1.729,5.958 5.575,5.571l3.842,-0.188c4.425,-0.387 5.575,-2.117 5.575,-6.154c-0.196,-26.138 -0.196,-48.054 -0.387,-83.038c0,-4.229 1.729,-5.771 5.575,-5.958l11.338,-0.192c4.421,-0.188 5.963,2.496 5.963,6.729l-1.154,85.729c-0.388,14.417 -6.538,23.062 -21.142,24.025l-11.917,0.767c-15.371,1.15 -23.638,-8.454 -24.6,-23.258l-3.458,-78.042c-0.188,-4.033 1.538,-6.537 6.725,-6.729l10.567,-0.575Z" style="fill:#141314;fill-rule:nonzero;"/><path d="M1279.346,34.795c3.267,0 5.188,1.154 5.575,5.383l0.388,10.958c0,2.5 -1.35,4.421 -4.233,4.421l-11.725,0.187c-2.692,0 -3.654,0.967 -3.846,3.85l-0.575,85.729c0,3.071 -0.962,4.8 -4.421,5.187l-12.3,0.767c-3.837,0.383 -4.8,-1.542 -4.8,-5l0.963,-87.458c0,-2.504 -0.579,-3.271 -2.692,-3.271l-45.167,-0.383c-3.271,-0.388 -4.421,-1.729 -4.421,-4.425l0.188,-11.721c0,-3.071 1.533,-5.188 4.8,-5.188l82.267,0.963Zm-50.754,28.638c3.65,0 5.188,1.917 5.375,5.571l0.775,18.65c0,2.692 -0.387,4.033 -3.654,4.033l-9.608,0c-2.312,0 -3.079,-1.154 -3.079,-2.879l-0.192,-7.496c0,-0.575 -0.188,-0.962 -1.15,-0.962l-7.692,0.388c-1.15,0.188 -1.729,0.575 -1.729,1.729l-0.188,16.142c0,1.346 0.767,2.308 2.879,2.308l16.338,0c2.879,0 3.654,1.35 3.267,3.654l-0.575,5.575c-0.379,2.304 -1.154,3.458 -3.458,3.458l-14.992,0c-2.692,0 -3.458,0.962 -3.458,3.267l-0.192,15.954c0,0.958 0.379,1.346 1.342,1.346l7.692,0.188c1.342,0 1.537,-0.383 1.729,-1.538l0.188,-6.729c0,-2.112 1.729,-3.075 3.658,-3.075l8.842,0c2.888,0 3.463,1.158 3.654,3.654l-0.192,18.65c0.196,5.192 -1.721,5.958 -5.954,5.958l-31.908,-0.192c-4.233,0 -6.538,-1.917 -6.538,-6.15l1.538,-73.042c0.2,-4.808 1.737,-7.312 6.925,-7.504l30.358,-0.958Z" style="fill:#141314;fill-rule:nonzero;"/><path d="M1338.526,35.185c3.458,0.379 4.996,2.304 4.996,5.188l0,11.137c0,2.892 -0.763,5.388 -2.304,8.654l-30.562,67.85c-0.771,0.963 -0.196,2.504 1.342,2.117l25.954,-1.921c3.267,0 4.808,1.154 4.808,4.421l0.575,12.496c0,2.308 -0.958,4.425 -4.612,4.425l-47.671,1.729c-3.458,-0.192 -4.608,-1.921 -4.608,-5l0,-12.108c0,-2.883 0.188,-5.379 1.917,-8.458l30.95,-68.233c0.579,-1.154 0,-2.117 -1.342,-2.117l-25.754,-0.575c-3.458,0 -5.767,-1.154 -5.188,-5.188l0.963,-10.958c0,-2.504 0.575,-4.808 4.033,-4.808l46.504,1.35Z" style="fill:#141314;fill-rule:nonzero;"/><path d="M1375.179,93.419c-0.196,0.962 0.192,1.537 1.342,1.537l9.996,0c0.775,0 1.542,-0.575 1.342,-1.533l-4.033,-36.517c-0.196,-0.771 -0.575,-1.346 -1.537,-1.154l-2.496,0.187c-0.962,0 -1.542,0.192 -1.542,1.346l-3.071,36.133Zm-16.533,-50.163c0.579,-4.425 2.692,-7.117 7.304,-7.496l28.454,-1.925c4.608,-0.387 7.304,2.504 7.879,6.346l13.262,104.371c0.575,3.654 -0.771,5.196 -3.654,5.383l-14.804,1.154c-3.267,0.379 -4.996,-0.963 -5.188,-3.654l-2.5,-29.408c0,-0.767 -0.962,-1.342 -1.542,-1.342l-12.3,0c-0.771,0 -1.35,0.379 -1.537,1.342l-1.542,23.067c-0.188,3.079 -2.108,4.612 -5.188,4.425l-14.604,-0.967c-3.458,-0.196 -4.808,-1.925 -4.421,-5.383l10.379,-95.913Z" style="fill:#141314;fill-rule:nonzero;"/><path d="M1440.592,33.828c4.233,-0.188 5.575,1.729 5.575,5l-1.342,88.8c0,0.963 0.575,2.117 1.917,2.117l11.533,0c1.542,0 1.729,-1.154 1.729,-2.304l0.192,-15.571c0,-2.117 0.962,-3.458 3.079,-3.458l12.3,0c3.458,0 4.033,1.738 4.033,4.229l-0.767,30.562c0,6.538 -3.267,8.267 -9.029,8.079l-38.829,-0.767c-5.383,0 -8.267,-2.692 -8.267,-8.075l1.342,-102.067c0,-4.038 1.346,-5.379 5.575,-5.767l10.958,-0.779Z" style="fill:#141314;fill-rule:nonzero;"/><path d="M1533.276,33.849c6.925,0 9.037,2.692 9.229,8.842l1.154,38.062c0.188,2.879 -0.579,4.421 -3.846,4.421l-13.262,0c-2.892,0 -4.233,-1.154 -4.233,-3.846l-0.188,-24.221c0,-0.963 -0.2,-1.729 -1.542,-1.538l-11.146,0.575c-1.154,0 -1.346,0.379 -1.346,1.342l-0.963,70.35c0,0.967 0.767,1.729 1.729,1.729l11.15,0.192c1.35,0 1.538,-0.963 1.538,-1.729l0.387,-24.025c0,-2.5 1.158,-4.229 3.654,-4.229l13.842,0c2.888,0 4.229,1.35 4.229,4.229l-0.383,37.1c0,6.529 -2.496,10.183 -10.188,10.183l-39.404,-0.188c-6.529,0 -9.221,-3.271 -9.033,-8.654l2.308,-96.879c0,-7.304 2.879,-9.996 10.571,-10.379l35.742,-1.338Z" style="fill:#141314;fill-rule:nonzero;"/><path d="M1577.499,56.121c-0.963,0 -1.537,0.575 -1.537,1.729l1.537,70.35c0,0.967 0.575,1.542 1.537,1.542l11.15,-0.192c1.154,0 1.729,-0.771 1.729,-1.537l-0.192,-70.542c0,-1.154 -0.196,-1.921 -1.537,-1.921l-12.688,0.571Zm5.963,-56.113l12.692,0c1.729,0 2.496,1.342 1.342,2.879l-16.917,24.604c-0.575,0.767 -1.542,1.342 -2.117,1.342l-7.113,0c-1.537,0 -2.304,-1.15 -1.537,-2.879l10.954,-24.225c0.579,-1.15 1.35,-1.729 2.696,-1.729l0,0.008Zm19.792,33.821c7.304,0 11.146,3.271 10.763,10.571l-1.542,95.342c0,6.729 -3.458,10.571 -9.417,10.571l-37.867,0.967c-6.917,0 -9.417,-3.846 -9.608,-9.421l-2.117,-97.458c-0.188,-5.95 2.308,-8.842 8.654,-9.029l41.133,-1.542Z" style="fill:#141314;fill-rule:nonzero;"/><path d="M1647.437,81.304l-1.342,0c-0.958,0.196 -1.342,0.387 -1.342,1.542l-2.504,25.563c0,0.771 0.192,1.542 1.154,1.542l7.112,0c0.954,0 1.342,-0.579 1.342,-1.346l-3.079,-26.138c0,-0.771 -0.379,-1.154 -1.342,-1.154l0,-0.008Zm67.275,-46.704c3.458,0 5.188,1.346 5.575,5.383l0.575,11.146c0.188,3.079 -1.154,4.421 -4.421,4.421l-11.537,0.192c-3.075,0 -3.654,0.763 -3.654,3.842l-0.963,85.733c-0.188,3.071 -0.954,4.612 -4.033,5.187l-12.492,0.767c-3.458,0 -4.8,-1.729 -4.608,-5.188l0.763,-87.263c0,-2.504 -0.763,-3.271 -2.692,-3.271l-43.438,-0.383c-3.267,0 -4.421,-1.729 -4.421,-4.612l0,-11.538c0,-3.071 1.538,-5.187 4.996,-5.187l80.35,0.771Zm-58.046,29.596c4.225,-0.188 5.762,1.542 6.15,5l10.571,77.079c0.379,2.5 -0.575,3.842 -3.079,4.229l-11.146,0.767c-2.692,0.196 -3.846,-0.387 -4.033,-2.883l-2.117,-20.375c-0.388,-0.767 -0.579,-1.154 -1.542,-1.154l-8.65,0c-0.767,0 -1.346,0.2 -1.346,0.962l-1.342,17.688c0,2.496 -1.729,3.846 -4.421,3.458l-10.758,-0.767c-2.496,-0.388 -3.846,-1.729 -3.463,-4.421l8.071,-72.275c0.379,-3.458 2.108,-5.571 5.954,-5.958l21.15,-1.35Z" style="fill:#141314;fill-rule:nonzero;"/><path d="M1743.189,33.828c4.233,-0.188 5.575,1.729 5.575,5l-1.342,88.8c0,0.963 0.575,2.117 1.917,2.117l11.533,0c1.542,0 1.729,-1.154 1.729,-2.304l0.192,-15.571c0,-2.117 0.962,-3.458 3.079,-3.458l12.3,0c3.458,0 4.033,1.738 4.033,4.229l-0.767,30.562c0,6.538 -3.267,8.267 -9.029,8.079l-38.829,-0.767c-5.383,0 -8.267,-2.692 -8.267,-8.075l1.342,-102.067c0,-4.038 1.342,-5.379 5.575,-5.767l10.958,-0.779Z" style="fill:#141314;fill-rule:nonzero;"/><path d="M2128.785,151.819c0.986,22.026 -13.38,31.115 -31.117,31.115l-75.644,-1.43c-24.92,0 -38.809,-3.37 -53.141,-22.978l-36.394,-51.237c-4.8,-6.705 -7.694,-8.135 -14.842,-8.135l-11.029,0.441c-2.384,0 -4.767,1.94 -4.767,5.278l0,63.696c0.954,11.505 -3.37,16.272 -13.889,16.272l-34.963,-1.43c-14.842,-0.478 -16.75,-8.137 -16.75,-19.61l3.337,-105.364c0.476,-18.69 10.553,-22.98 22.026,-22.98l59.372,-1.43c21.55,0 29.685,3.813 41.668,19.132l46.47,59.406c5.719,6.705 10.043,8.135 18.656,8.613l31.117,0c2.892,0 5.276,-1.464 4.8,-4.8l0,-14.367c0,-3.337 -1.43,-5.243 -5.278,-5.243l-22.98,0c-7.694,0 -9.599,-2.894 -10.553,-10.553l-3.335,-34.963c-1.43,-15.32 9.567,-17.226 18.69,-17.226l63.661,0.476c11.505,0 19.642,7.659 19.642,20.12l5.243,97.194Z" style="fill:#141314;fill-rule:nonzero;"/><path d="M2064.647,282.239c0,-6.197 -5.278,-10.519 -11.031,-10.519l-142.232,0c-5.719,0 -10.997,3.846 -10.997,10.519l0,3.37c0,6.707 5.278,10.997 10.997,10.997l142.232,0c5.754,0 11.031,-4.289 11.031,-10.997l0,-3.37Zm64.172,15.353c0,36.36 -29.72,65.125 -66.077,65.125l-159.97,0c-36.87,0 -66.555,-28.766 -66.555,-65.125l0,-26.826c0,-36.868 29.685,-66.079 66.555,-66.079l159.97,0c36.358,0 66.077,29.211 66.077,66.079l0,26.826Z" style="fill:#141314;fill-rule:nonzero;"/><path d="M2128.785,503.623c0.986,22.026 -13.38,31.117 -31.117,31.117l-75.644,-1.432c-24.92,0 -38.809,-3.37 -53.141,-22.978l-36.394,-51.237c-4.8,-6.705 -7.694,-8.135 -14.842,-8.135l-11.029,0.441c-2.384,0 -4.767,1.94 -4.767,5.278l0,63.696c0.954,11.505 -3.37,16.272 -13.889,16.272l-34.963,-1.43c-14.842,-0.476 -16.75,-8.137 -16.75,-19.61l3.337,-105.364c0.476,-18.69 10.553,-22.98 22.026,-22.98l59.372,-1.43c21.55,0 29.685,3.813 41.668,19.132l46.47,59.406c5.719,6.705 10.043,8.135 18.656,8.613l31.117,0c2.892,0 5.276,-1.464 4.8,-4.8l0,-14.367c0,-3.337 -1.43,-5.243 -5.278,-5.243l-22.98,0c-7.694,0 -9.599,-2.894 -10.553,-10.553l-3.335,-34.963c-1.43,-15.32 9.567,-17.226 18.69,-17.226l63.661,0.476c11.505,0 19.642,7.659 19.642,20.12l5.243,97.194Z" style="fill:#141314;fill-rule:nonzero;"/><path d="M1956.9,627.133c0,-3.37 -1.43,-4.8 -4.8,-4.8l-42.624,-0.478c-4.8,0 -8.611,1.43 -8.135,7.183l0.476,10.997c0,3.848 1.94,5.754 6.707,5.754l39.762,0c6.197,0 8.613,-1.906 8.613,-7.659l0,-10.997Zm171.886,56.002c0,13.889 -8.613,21.55 -22.504,21.55l-56.547,1.43c-9.565,0 -14.365,-3.337 -14.365,-13.415l0.952,-37.344c0.51,-7.183 3.37,-10.043 10.553,-10.043l10.043,0c4.802,0 7.183,-1.43 7.183,-5.278l-0.476,-9.567c0,-3.846 -1.906,-6.705 -6.195,-6.705l-26.827,-0.478c-7.659,0 -10.077,3.848 -10.519,10.555l-1.94,49.295c-0.919,16.783 -8.613,23.012 -23.933,23.012l-115.374,1.908c-26.826,0.476 -38.333,-8.137 -39.762,-39.252l-1.906,-71.355c-1.43,-38.81 26.35,-42.624 50.759,-42.146l215.494,8.135c14.842,0.954 22.504,7.183 22.98,23.456l2.384,96.242Z" style="fill:#141314;fill-rule:nonzero;"/></svg>