<?xml version="1.0" encoding="UTF-8" standalone="no"?><!DOCTYPE svg PUBLIC "-//W3C//DTD SVG 1.1//EN" "http://www.w3.org/Graphics/SVG/1.1/DTD/svg11.dtd"><svg width="100%" height="100%" viewBox="0 0 388 381" version="1.1" xmlns="http://www.w3.org/2000/svg" xmlns:xlink="http://www.w3.org/1999/xlink" xml:space="preserve" xmlns:serif="http://www.serif.com/" style="fill-rule:evenodd;clip-rule:evenodd;stroke-linejoin:round;stroke-miterlimit:2;"><rect x="0" y="0" width="387.629" height="380.337" style="fill:#01f0ff;"/><path d="M290.028,111.56l-17.635,-17.636l-214.415,214.411l17.635,17.636l214.415,-214.411Z" style="fill:#d46b5c;"/><path d="M329.586,308.336l-214.413,-214.413l-17.637,17.637l214.413,214.413l17.638,-17.638Z" style="fill:#d46b5c;"/><path d="M97.553,111.55l17.638,-17.642c-3.817,-12.625 -9.913,-20.171 -19.425,-24.85c-9.646,-4.746 -25.575,-11.663 -37.775,-14.713c3.046,12.204 9.963,28.133 14.708,37.775c4.683,9.512 12.229,15.612 24.854,19.429" style="fill:#d2dcfd;"/><path d="M134.776,113.508l-19.596,-19.596l-17.638,17.638l19.596,19.596l17.637,-17.638Z" style="fill:#fdcb50;"/><path d="M219.401,297.692c26.188,-81.763 35.533,-176.587 -25.588,-229.483c-61.121,52.896 -51.775,147.721 -25.587,229.483l25.587,14.442l25.588,-14.442Z" style="fill:#fdcb50;"/><path d="M290.077,111.55l-17.642,-17.642c3.817,-12.625 9.917,-20.171 19.429,-24.85c9.642,-4.746 25.571,-11.663 37.771,-14.713c-3.046,12.204 -9.962,28.129 -14.708,37.775c-4.683,9.512 -12.225,15.608 -24.85,19.429" style="fill:#d2dcfd;"/><path d="M290.041,111.568l-17.638,-17.638l-19.596,19.596l17.637,17.637l19.596,-19.596Z" style="fill:#fdcb50;"/><path d="M222.999,286.002c-18.179,-18.754 -32.108,-41.658 -40.225,-67.154c-2.929,-9.192 -5.1,-18.721 -6.442,-28.517c-0.013,-0.096 -0.021,-0.188 -0.037,-0.283c-1.025,-7.579 -1.554,-15.312 -1.554,-23.175c0,-4.35 0.162,-8.667 0.483,-12.938c2.15,-28.8 11.429,-55.612 26.079,-78.683c-2.367,-2.425 -4.863,-4.775 -7.492,-7.046c-20.342,17.608 -32.879,39.863 -39.588,64.733c-2.6,9.646 -4.325,19.679 -5.287,29.992c-1.613,17.238 -1.092,35.242 1.012,53.463c1.163,10.104 2.821,20.267 4.871,30.408c3.479,17.196 8.096,34.313 13.404,50.892l25.588,14.438l25.592,-14.438c1.238,-3.871 2.438,-7.771 3.596,-11.692" style="fill:#fd8f01;"/><path d="M193.813,200.002l-9.833,-9.829l9.833,-9.833l9.833,9.833l-9.833,9.829Zm21.546,-13.738l-17.642,-17.637c-1.033,-1.037 -2.442,-1.617 -3.904,-1.617c-1.463,0 -2.867,0.579 -3.904,1.617l-17.642,17.637c-2.154,2.158 -2.154,5.654 0,7.813l17.642,17.637c1.037,1.037 2.442,1.621 3.904,1.621c1.463,0 2.871,-0.583 3.904,-1.621l17.642,-17.637c2.154,-2.158 2.154,-5.654 0,-7.813" style="fill:#bc3c85;fill-rule:nonzero;"/><path d="M184.088,144.798c1.079,1.079 2.492,1.617 3.904,1.617c1.412,0 2.829,-0.538 3.904,-1.617l1.917,-1.917l1.917,1.917c1.079,1.079 2.492,1.617 3.904,1.617c1.417,0 2.825,-0.538 3.904,-1.617c2.158,-2.154 2.158,-5.65 0,-7.808l-1.917,-1.917l1.917,-1.917c2.158,-2.154 2.158,-5.654 0,-7.808c-2.154,-2.158 -5.65,-2.158 -7.808,0l-1.917,1.917l-1.917,-1.917c-2.154,-2.158 -5.65,-2.158 -7.808,0c-2.158,2.154 -2.158,5.65 0,7.808l1.917,1.917l-1.917,1.917c-2.154,2.154 -2.154,5.654 0,7.808" style="fill:#bc3c85;fill-rule:nonzero;"/><path d="M203.539,235.543c-2.154,-2.158 -5.65,-2.158 -7.808,0l-1.917,1.917l-1.917,-1.917c-2.154,-2.158 -5.654,-2.158 -7.808,0c-2.158,2.158 -2.158,5.654 0,7.808l1.917,1.917l-1.917,1.917c-2.158,2.154 -2.158,5.654 0,7.808c1.079,1.079 2.487,1.617 3.904,1.617c1.413,0 2.825,-0.542 3.904,-1.617l1.917,-1.917l1.917,1.917c1.079,1.079 2.492,1.617 3.904,1.617c1.412,0 2.825,-0.542 3.904,-1.617c2.158,-2.154 2.158,-5.654 0,-7.808l-1.917,-1.917l1.917,-1.917c2.158,-2.154 2.158,-5.65 0,-7.808" style="fill:#bc3c85;fill-rule:nonzero;"/></svg>