<?xml version="1.0" encoding="UTF-8" standalone="no"?><!DOCTYPE svg PUBLIC "-//W3C//DTD SVG 1.1//EN" "http://www.w3.org/Graphics/SVG/1.1/DTD/svg11.dtd"><svg width="100%" height="100%" viewBox="0 0 768 381" version="1.1" xmlns="http://www.w3.org/2000/svg" xmlns:xlink="http://www.w3.org/1999/xlink" xml:space="preserve" xmlns:serif="http://www.serif.com/" style="fill-rule:evenodd;clip-rule:evenodd;stroke-linejoin:round;stroke-miterlimit:2;"><rect x="0" y="0" width="767.712" height="380.337"/><path d="M275.305,286.401c49.129,0.867 103.283,14.238 154.663,-32.329c-5.529,-10.317 -9.7,-21.321 -12.404,-32.729c-36.271,8.5 -75.975,13.938 -112.796,13.938c-1.887,0 -3.762,-0.008 -5.637,-0.033c-10.542,-0.113 -20.808,-0.546 -30.758,-1.304c-19.975,-1.525 -38.667,-4.346 -55.717,-8.479c-48.188,26.05 -40.513,76.108 -26.554,97.279c25.967,-31.942 56.471,-36.913 89.204,-36.342" style="fill:#fd6050;"/><path d="M387.213,280.354c14.354,-5.246 28.658,-13.504 42.754,-26.279c-5.529,-10.317 -9.7,-21.321 -12.4,-32.729c-15.95,3.733 -32.562,6.879 -49.304,9.233c3.892,17.429 10.283,34.196 18.95,49.775" style="fill:#bc3c85;"/><path d="M275.305,93.94c49.129,-0.867 103.283,-14.237 154.663,32.329c-5.529,10.317 -9.7,21.321 -12.404,32.729c-36.271,-8.5 -75.975,-13.938 -112.796,-13.938c-1.887,0 -3.762,0.008 -5.637,0.029c-10.542,0.117 -20.808,0.546 -30.758,1.308c-19.975,1.521 -38.667,4.346 -55.717,8.479c-48.188,-26.05 -40.513,-76.108 -26.554,-97.279c25.967,31.942 56.471,36.913 89.204,36.342" style="fill:#fd6050;"/><path d="M387.213,99.988c14.354,5.246 28.658,13.504 42.754,26.279c-5.529,10.317 -9.7,21.321 -12.4,32.729c-15.95,-3.733 -32.562,-6.879 -49.304,-9.233c3.892,-17.429 10.283,-34.196 18.95,-49.775" style="fill:#bc3c85;"/><path d="M268.373,233.944c9.946,0.758 20.212,1.192 30.758,1.304c1.871,0.021 3.75,0.033 5.637,0.033c36.821,0 76.521,-5.442 112.796,-13.938c-2.396,-10.133 -3.633,-20.592 -3.633,-31.175c0,-10.579 1.238,-21.037 3.633,-31.171c-36.275,-8.5 -75.975,-13.938 -112.796,-13.938c-1.887,0 -3.771,0.012 -5.637,0.033c-10.554,0.113 -20.821,0.55 -30.758,1.308c-55.938,4.279 -101.525,18.813 -130.125,43.767c18.096,16.075 43.579,27.821 74.408,35.296c17.05,4.133 35.738,6.954 55.717,8.479" style="fill:#fd6050;"/><path d="M368.265,230.575c16.738,-2.35 33.354,-5.496 49.3,-9.229c-2.396,-10.138 -3.633,-20.592 -3.633,-31.175c0,-10.583 1.238,-21.042 3.633,-31.175c-15.946,-3.733 -32.562,-6.879 -49.3,-9.229c-2.942,13.163 -4.462,26.704 -4.462,40.404c0,13.7 1.521,27.242 4.462,40.404" style="fill:#bc3c85;"/><path d="M492.554,246.876l-38.988,38.992c-25.379,-25.383 -39.637,-59.808 -39.637,-95.696c0,-35.896 14.258,-70.317 39.637,-95.696l38.988,38.983c-14.512,14.512 -23.488,34.563 -23.488,56.713c0,22.146 8.975,42.192 23.488,56.704" style="fill:#fdcb50;"/><path d="M524.202,190.17c0,13.842 11.221,25.062 25.058,25.062c13.842,0 25.063,-11.221 25.063,-25.062c0,-13.842 -11.221,-25.062 -25.063,-25.062c-13.837,0 -25.058,11.221 -25.058,25.062m-55.133,0c0,-44.292 35.904,-80.2 80.192,-80.2c44.292,0 80.2,35.908 80.2,80.2c0,44.292 -35.908,80.2 -80.2,80.2c-44.287,0 -80.192,-35.908 -80.192,-80.2" style="fill:#d46b5c;"/><path d="M291.533,190.17l-23.158,-43.767c-55.937,4.279 -101.525,18.812 -130.125,43.767c18.096,16.071 43.579,27.821 74.404,35.292c17.05,4.133 35.742,6.958 55.721,8.483l23.158,-43.775Z" style="fill:#fde0be;"/><path d="M268.373,233.944c-19.979,-1.525 -38.667,-4.346 -55.717,-8.479c-48.188,26.05 -40.513,76.104 -26.558,97.279c25.971,-31.942 56.471,-36.917 89.2,-36.342l23.833,-51.154c-10.546,-0.112 -20.812,-0.546 -30.758,-1.304" style="fill:#f7b073;"/><path d="M268.373,146.397c-19.979,1.525 -38.667,4.346 -55.717,8.483c-48.188,-26.054 -40.513,-76.108 -26.558,-97.283c25.971,31.942 56.471,36.917 89.2,36.342l23.833,51.154c-10.546,0.113 -20.812,0.546 -30.758,1.304" style="fill:#f7b073;"/></svg>