<?xml version="1.0" encoding="UTF-8" standalone="no"?><!DOCTYPE svg PUBLIC "-//W3C//DTD SVG 1.1//EN" "http://www.w3.org/Graphics/SVG/1.1/DTD/svg11.dtd"><svg width="100%" height="100%" viewBox="0 0 388 381" version="1.1" xmlns="http://www.w3.org/2000/svg" xmlns:xlink="http://www.w3.org/1999/xlink" xml:space="preserve" xmlns:serif="http://www.serif.com/" style="fill-rule:evenodd;clip-rule:evenodd;stroke-linejoin:round;stroke-miterlimit:2;"><rect x="0" y="0" width="387.629" height="380.337" style="fill:#fc3309;"/><path d="M263.477,152.66c0,38.475 -31.188,69.662 -69.658,69.662c-38.475,0 -69.662,-31.188 -69.662,-69.662c0,-38.471 31.188,-69.658 69.658,-69.658c38.475,0 69.663,31.188 69.663,69.658m-69.658,168.792c72.504,0 131.279,-58.775 131.279,-131.283c0,-72.504 -58.775,-131.279 -131.283,-131.279c-72.504,0 -131.279,58.775 -131.279,131.279c0,72.504 58.775,131.283 131.283,131.283" style="fill:#fdcb50;"/><path d="M193.817,321.453c7.863,0 15.567,-0.696 23.05,-2.021c-42.275,-26.358 -71.842,-71.188 -77.4,-123.2c-9.575,-11.933 -15.313,-27.079 -15.313,-43.571c0,-27.888 16.392,-51.946 40.063,-63.071c7.083,-11.179 15.471,-21.45 24.938,-30.613c-70.346,2.458 -126.621,60.25 -126.621,131.192c0,72.508 58.775,131.283 131.283,131.283" style="fill:#fd8f01;"/><path d="M324.818,198.898l-42.842,12.671l2.338,31.588l-31.588,-2.338l-9.929,30.079l-28.292,-14.25l-20.683,23.992l-20.683,-23.992l-11.738,5.912l-19.233,13.696l-9.929,-30.079l-34.271,-0.342l2.338,-31.592l-37.488,-15.462c4.433,68.492 61.392,122.671 131,122.671c69.575,0 126.508,-54.117 131,-122.554" style="fill:#fd8f01;"/><path d="M161.401,262.56l-16.558,8.338l-9.929,-30.079l-31.587,2.338l2.337,-31.588l-42.85,-12.787c4.438,68.492 61.396,122.671 131.004,122.671c7.862,0 15.562,-0.696 23.042,-2.021c-22.754,-14.192 -41.829,-33.733 -55.458,-56.871" style="fill:#fd6050;"/></svg>