<?xml version="1.0" encoding="UTF-8" standalone="no"?><!DOCTYPE svg PUBLIC "-//W3C//DTD SVG 1.1//EN" "http://www.w3.org/Graphics/SVG/1.1/DTD/svg11.dtd"><svg width="100%" height="100%" viewBox="0 0 740 381" version="1.1" xmlns="http://www.w3.org/2000/svg" xmlns:xlink="http://www.w3.org/1999/xlink" xml:space="preserve" xmlns:serif="http://www.serif.com/" style="fill-rule:evenodd;clip-rule:evenodd;stroke-linejoin:round;stroke-miterlimit:2;"><rect x="0" y="0" width="739.846" height="380.337" style="fill:#4b17f7;"/><path d="M461.326,190.17c16.425,16.988 39.45,27.558 64.946,27.558c25.492,0 48.517,-10.571 64.942,-27.558c-16.425,-16.987 -39.45,-27.554 -64.942,-27.554c-25.496,0 -48.521,10.567 -64.946,27.554" style="fill:#fde0be;"/><path d="M526.273,190.17l15.175,26.287c19.392,-3.283 36.675,-12.746 49.767,-26.287c-13.092,-13.542 -30.375,-23.004 -49.767,-26.287l-15.175,26.287Z" style="fill:#d46b5c;"/><path d="M424.577,284.535c16.421,16.988 39.446,27.558 64.942,27.558c25.496,0 48.517,-10.567 64.942,-27.558c-16.425,-16.987 -39.446,-27.554 -64.942,-27.554c-25.496,0 -48.521,10.567 -64.942,27.554" style="fill:#fde0be;"/><path d="M489.518,284.535l15.175,26.288c19.392,-3.283 36.675,-12.742 49.767,-26.288c-13.092,-13.542 -30.375,-23.004 -49.767,-26.283l-15.175,26.283Z" style="fill:#d46b5c;"/><path d="M424.577,95.806c16.421,16.987 39.446,27.554 64.942,27.554c25.496,0 48.517,-10.567 64.942,-27.554c-16.425,-16.987 -39.446,-27.554 -64.942,-27.554c-25.496,0 -48.521,10.567 -64.942,27.554" style="fill:#fde0be;"/><path d="M489.518,95.806l15.175,26.287c19.392,-3.283 36.675,-12.746 49.767,-26.287c-13.092,-13.542 -30.375,-23.004 -49.767,-26.288l-15.175,26.288Z" style="fill:#d46b5c;"/><path d="M204.835,91.573c54.479,-54.475 142.8,-54.475 197.275,0c54.475,54.475 54.475,142.796 -0,197.275c-54.475,54.479 -142.796,54.479 -197.275,0c-54.475,-54.479 -54.475,-142.8 0,-197.275" style="fill:#fdcb50;"/><path d="M442.98,190.17c0,77.054 -62.462,139.517 -139.517,139.517c-76.525,0 -138.65,-61.621 -139.496,-137.95c35.142,25.387 78.3,40.358 124.958,40.358c59.65,0 113.575,-24.454 152.333,-63.871c1.129,7.15 1.721,14.479 1.721,21.946" style="fill:#fd8f01;"/><path d="M403.739,190.17c0,2.933 -0.129,5.838 -0.379,8.708c-19.767,83.888 -149.979,104.975 -196.921,16.696c-2.121,-8.112 -3.25,-16.625 -3.25,-25.404c0,-55.379 44.896,-100.275 100.275,-100.275c55.383,0 100.275,44.896 100.275,100.275" style="fill:#fd6050;"/><path d="M403.36,198.881c-4.417,51.3 -47.446,91.567 -99.892,91.567c-46.604,-0 -85.779,-31.796 -97.029,-74.871c25.383,10.633 53.246,16.517 82.488,16.517c42.1,0 81.35,-12.183 114.433,-33.213" style="fill:#bc3c85;"/><path d="M316.579,177.054l-26.229,0l0,26.233l26.229,0l0,-26.233Zm17.371,-8.683l0,43.6c0,4.796 -3.892,8.683 -8.687,8.683l-43.596,0c-4.8,0 -8.683,-3.888 -8.683,-8.683l0,-43.6c0,-4.796 3.883,-8.688 8.683,-8.688l43.596,0c4.796,0 8.687,3.892 8.687,8.688" style="fill:#fdcb50;fill-rule:nonzero;"/></svg>