<?xml version="1.0" encoding="UTF-8" standalone="no"?><!DOCTYPE svg PUBLIC "-//W3C//DTD SVG 1.1//EN" "http://www.w3.org/Graphics/SVG/1.1/DTD/svg11.dtd"><svg width="100%" height="100%" viewBox="0 0 624 312" version="1.1" xmlns="http://www.w3.org/2000/svg" xmlns:xlink="http://www.w3.org/1999/xlink" xml:space="preserve" xmlns:serif="http://www.serif.com/" style="fill-rule:evenodd;clip-rule:evenodd;stroke-linejoin:round;stroke-miterlimit:2;"><path d="M0,311.988l623.979,0l0,-311.987l-623.979,-0l0,311.987Z" style="fill:#4b17f7;"/><path d="M183.196,160.373c0,24.746 20.062,44.812 44.812,44.812c24.746,0 44.812,-20.067 44.812,-44.812c0,-24.75 -20.067,-44.817 -44.812,-44.817c-24.75,-0 -44.812,20.067 -44.812,44.817m-57.617,0c0,-56.571 45.858,-102.429 102.429,-102.429c56.567,0 102.425,45.858 102.425,102.429c0,56.567 -45.858,102.425 -102.425,102.425c-56.571,0 -102.429,-45.858 -102.429,-102.425" style="fill:#fde0be;"/><path d="M176.794,71.665l28.804,49.892c6.592,-3.812 14.246,-6 22.408,-6c8.167,0 15.821,2.188 22.412,6l28.8,-49.892l0.012,-0.013c-15.067,-8.721 -32.562,-13.708 -51.225,-13.708c-18.658,0 -36.154,4.987 -51.221,13.708l0.008,0.013Z" style="fill:#f7b073;"/><path d="M330.455,160.373l-57.629,0c0.008,7.617 -1.929,15.338 -6.008,22.408c-4.083,7.067 -9.8,12.604 -16.4,16.404l28.804,49.892l0.008,0.013c15.083,-8.688 28.154,-21.342 37.483,-37.504c9.329,-16.162 13.754,-33.804 13.742,-51.212Z" style="fill:#f7b073;"/><path d="M176.794,249.077l28.804,-49.892c-6.6,-3.8 -12.317,-9.337 -16.396,-16.404c-4.088,-7.071 -6.021,-14.792 -6.017,-22.408l-57.625,0c-0.012,17.408 4.412,35.05 13.742,51.212c9.329,16.162 22.4,28.817 37.483,37.504l0.008,-0.012Z" style="fill:#f7b073;"/><path d="M168.87,262.798l118.275,0l-7.917,-13.708l-0.004,-0.013l-28.808,-49.892c-6.592,3.812 -14.246,5.996 -22.408,5.996c-8.167,0 -15.817,-2.183 -22.408,-5.996l-28.804,49.892l-0.012,0.012l-7.912,13.708Z" style="fill:#fde0be;"/><path d="M447.393,79.531c19.508,8.329 28.575,30.896 20.246,50.404c-8.329,19.512 -30.896,28.575 -50.408,20.246c-19.508,-8.329 -28.571,-30.896 -20.242,-50.404c8.329,-19.512 30.896,-28.575 50.404,-20.246" style="fill:#d46b5c;"/><path d="M324.058,160.373c0,31.875 -16.238,62.117 -42.608,79.808l-22.537,-39.029c12.317,-9.358 20.283,-24.158 20.283,-40.783c0,-28.225 -22.962,-51.187 -51.187,-51.187c-28.229,0 -51.187,22.962 -51.187,51.187c0,16.625 7.962,31.425 20.279,40.783l-22.533,39.029c-26.383,-17.696 -42.613,-47.913 -42.613,-79.808c0,-52.967 43.092,-96.054 96.054,-96.054c52.963,0 96.05,43.087 96.05,96.054m-96.05,38.433c-21.192,0 -38.437,-17.242 -38.437,-38.437c0,-21.192 17.246,-38.433 38.437,-38.433c21.196,0 38.437,17.242 38.437,38.433c0,21.196 -17.242,38.437 -38.437,38.437m-48.092,57.617l28.217,-48.879c6.112,2.588 12.833,4.012 19.875,4.012c7.046,0 13.758,-1.425 19.871,-4.012l28.221,48.879l-96.183,0Zm48.092,-204.854c-59.996,0 -108.804,48.804 -108.804,108.804c0,18.604 4.813,37.012 13.913,53.237c8.5,15.146 20.575,28.096 35.058,37.638l-2.983,5.175l-39.612,0c-3.521,0 -6.375,2.854 -6.375,6.375c0,3.521 2.854,6.375 6.375,6.375l313.687,0c3.521,0 6.375,-2.854 6.375,-6.375c0,-3.521 -2.854,-6.375 -6.375,-6.375l-148.442,0l-2.988,-5.175c14.542,-9.575 26.654,-22.592 35.154,-37.808c9.042,-16.183 13.821,-34.533 13.821,-53.071c0,-59.996 -48.808,-108.8 -108.804,-108.8" style="fill:#d46b5c;fill-rule:nonzero;"/><path d="M177.17,114.043c0,1.412 -0.467,2.829 -1.421,4.013c-4.446,5.487 -7.983,11.621 -10.517,18.217c-1.262,3.287 -4.954,4.929 -8.242,3.667c-3.288,-1.262 -4.929,-4.95 -3.667,-8.237c3.013,-7.85 7.225,-15.142 12.513,-21.675c2.217,-2.733 6.233,-3.158 8.971,-0.942c1.554,1.263 2.362,3.1 2.362,4.958" style="fill:#f7b073;fill-rule:nonzero;"/><path d="M245.901,233.093c0,3.083 -2.238,5.792 -5.379,6.292c-8.304,1.312 -16.725,1.312 -25.029,0c-3.479,-0.554 -5.85,-3.817 -5.3,-7.296c0.55,-3.479 3.817,-5.85 7.296,-5.304c6.979,1.108 14.058,1.108 21.037,0c3.475,-0.55 6.746,1.825 7.296,5.304c0.054,0.338 0.079,0.671 0.079,1.004" style="fill:#f7b073;fill-rule:nonzero;"/><path d="M303.117,133.985c0,2.562 -1.558,4.979 -4.096,5.954c-3.287,1.263 -6.975,-0.379 -8.233,-3.667c-2.533,-6.596 -6.075,-12.729 -10.521,-18.217c-2.217,-2.737 -1.796,-6.754 0.942,-8.971c2.737,-2.217 6.75,-1.792 8.967,0.942c5.292,6.533 9.5,13.825 12.517,21.675c0.288,0.754 0.425,1.525 0.425,2.283" style="fill:#f7b073;fill-rule:nonzero;"/><path d="M177.17,206.699c0,1.858 -0.808,3.696 -2.362,4.958c-2.738,2.217 -6.754,1.792 -8.971,-0.942c-5.287,-6.537 -9.5,-13.825 -12.513,-21.675c-1.262,-3.287 0.379,-6.975 3.667,-8.237c3.287,-1.263 6.979,0.379 8.242,3.667c2.529,6.6 6.071,12.729 10.517,18.217c0.954,1.183 1.421,2.6 1.421,4.012" style="fill:#d46b5c;fill-rule:nonzero;"/><path d="M303.117,186.757c0,0.758 -0.137,1.529 -0.425,2.283c-3.017,7.85 -7.225,15.142 -12.517,21.675c-2.217,2.733 -6.229,3.158 -8.967,0.942c-2.737,-2.217 -3.158,-6.233 -0.942,-8.967c4.446,-5.492 7.988,-11.621 10.521,-18.221c1.258,-3.287 4.946,-4.929 8.233,-3.667c2.538,0.975 4.096,3.392 4.096,5.954" style="fill:#d46b5c;fill-rule:nonzero;"/><path d="M245.901,87.649c0,0.333 -0.025,0.667 -0.079,1.008c-0.55,3.475 -3.821,5.85 -7.296,5.3c-6.979,-1.108 -14.058,-1.108 -21.037,0c-3.479,0.55 -6.746,-1.825 -7.296,-5.3c-0.55,-3.483 1.821,-6.746 5.3,-7.296c8.304,-1.317 16.725,-1.317 25.029,0c3.142,0.496 5.379,3.204 5.379,6.287" style="fill:#d46b5c;fill-rule:nonzero;"/><path d="M523.17,114.268c-0.642,1.504 -1.854,2.758 -3.488,3.417l-17.821,7.154c-3.267,1.312 -6.979,-0.271 -8.296,-3.542c-1.308,-3.267 0.275,-6.979 3.542,-8.292l17.825,-7.154c3.263,-1.317 6.979,0.271 8.292,3.537c0.658,1.633 0.588,3.379 -0.054,4.879" style="fill:#93b2f4;fill-rule:nonzero;"/></svg>