<?xml version="1.0" encoding="UTF-8" standalone="no"?><!DOCTYPE svg PUBLIC "-//W3C//DTD SVG 1.1//EN" "http://www.w3.org/Graphics/SVG/1.1/DTD/svg11.dtd"><svg width="100%" height="100%" viewBox="0 0 312 312" version="1.1" xmlns="http://www.w3.org/2000/svg" xmlns:xlink="http://www.w3.org/1999/xlink" xml:space="preserve" xmlns:serif="http://www.serif.com/" style="fill-rule:evenodd;clip-rule:evenodd;stroke-linejoin:round;stroke-miterlimit:2;"><rect x="0" y="0" width="311.988" height="311.988" style="fill:#fc8afc;"/><path d="M251.679,44.883l15.429,15.429l-6.554,8.558c-3.679,4.808 -4.588,11.792 1.254,17.633l-189.292,180.604l-27.633,-27.637l180.604,-189.292c5.842,5.842 12.821,4.938 17.633,1.254l8.558,-6.55Z" style="fill:#d46b5c;"/><path d="M193.629,83.569l34.792,34.792l33.387,-31.858c-5.842,-5.842 -4.933,-12.825 -1.254,-17.633l6.554,-8.558l-15.429,-15.429l-8.558,6.554c-4.812,3.679 -11.792,4.588 -17.633,-1.254l-31.858,33.388Z" style="fill:#f7b073;"/><path d="M100.22,211.465l-0.004,-0.004c-1.842,-1.679 -4.7,-1.537 -6.379,0.304c-1.675,1.85 -1.542,4.708 0.308,6.383c0.862,0.787 1.95,1.175 3.038,1.175c1.225,0 2.45,-0.496 3.342,-1.479c1.679,-1.846 1.542,-4.7 -0.304,-6.379" style="fill:#6b2018;fill-rule:nonzero;"/><path d="M119.613,192.37c-1.763,-1.763 -4.621,-1.763 -6.388,0c-1.763,1.767 -1.763,4.625 0.004,6.392c0.879,0.879 2.038,1.321 3.192,1.321c1.158,0 2.312,-0.442 3.196,-1.321c1.763,-1.767 1.763,-4.625 0,-6.387l-0.004,-0.004Z" style="fill:#6b2018;fill-rule:nonzero;"/><path d="M138.854,173.13c-1.762,-1.767 -4.621,-1.767 -6.387,0c-1.763,1.762 -1.763,4.625 0.004,6.387c0.879,0.883 2.037,1.325 3.192,1.325c1.158,0 2.312,-0.442 3.196,-1.325c1.763,-1.762 1.763,-4.625 0,-6.387l-0.004,0Z" style="fill:#6b2018;fill-rule:nonzero;"/><path d="M158.095,153.889c-1.762,-1.767 -4.621,-1.767 -6.383,0c-1.767,1.762 -1.763,4.625 0,6.387c0.883,0.883 2.037,1.325 3.192,1.325c1.158,0 2.312,-0.442 3.196,-1.325c1.763,-1.762 1.763,-4.625 0,-6.387l-0.004,0Z" style="fill:#6b2018;fill-rule:nonzero;"/><path d="M177.197,134.514l-0.004,-0.004c-1.838,-1.683 -4.696,-1.558 -6.379,0.279c-1.683,1.842 -1.558,4.7 0.279,6.383c0.867,0.796 1.962,1.188 3.05,1.188c1.225,0 2.442,-0.496 3.333,-1.467c1.683,-1.838 1.562,-4.696 -0.279,-6.379" style="fill:#6b2018;fill-rule:nonzero;"/><path d="M196.278,115.132l-0.004,0c-1.912,-1.6 -4.763,-1.337 -6.358,0.575c-1.596,1.921 -1.337,4.767 0.579,6.367c0.846,0.7 1.871,1.046 2.892,1.046c1.292,0 2.575,-0.554 3.471,-1.625c1.596,-1.917 1.337,-4.767 -0.579,-6.362" style="fill:#6b2018;fill-rule:nonzero;"/><path d="M228.674,76.923l-3.208,3.208c-1.762,1.763 -1.762,4.625 0,6.388c0.883,0.883 2.038,1.321 3.196,1.321c1.154,0 2.312,-0.438 3.192,-1.321l3.208,-3.208c1.763,-1.763 1.763,-4.625 0,-6.388c-1.762,-1.763 -4.625,-1.763 -6.387,0" style="fill:#6b2018;fill-rule:nonzero;"/></svg>