<?xml version="1.0" encoding="UTF-8" standalone="no"?><!DOCTYPE svg PUBLIC "-//W3C//DTD SVG 1.1//EN" "http://www.w3.org/Graphics/SVG/1.1/DTD/svg11.dtd"><svg width="100%" height="100%" viewBox="0 0 312 312" version="1.1" xmlns="http://www.w3.org/2000/svg" xmlns:xlink="http://www.w3.org/1999/xlink" xml:space="preserve" xmlns:serif="http://www.serif.com/" style="fill-rule:evenodd;clip-rule:evenodd;stroke-linejoin:round;stroke-miterlimit:2;"><rect x="0" y="0" width="311.988" height="311.988" style="fill:#f0e6ff;"/><path d="M136.52,118.741c0,21.812 3.713,45.771 9.096,65.971c3.438,-0.413 6.904,-0.617 10.379,-0.617c3.471,0 6.938,0.204 10.375,0.617c5.383,-20.2 9.096,-44.158 9.096,-65.967c0,-9.858 -0.521,-19.758 -1.821,-29.529c-2.75,-20.7 -8.621,-37.621 -17.65,-48.917c-9.042,11.104 -14.908,28.121 -17.658,48.904c-1.292,9.771 -1.817,19.692 -1.817,29.538" style="fill:#fde0be;"/><path d="M145.618,184.71c-5.383,-20.2 -9.096,-44.158 -9.096,-65.971c0,-9.754 0.517,-19.588 1.783,-29.271c0.008,-0.088 0.021,-0.175 0.033,-0.262c-4.879,-9.8 -16.1,-19.179 -30.042,-25.25c-8.833,15.3 -8.117,34.783 -2.437,55.975c3.817,14.242 7.629,28.483 11.446,42.725c2.433,9.083 4.867,18.171 7.3,27.254c6.775,-2.6 13.833,-4.342 21.013,-5.2" style="fill:#fd6050;"/><path d="M175.468,118.741c0,21.813 -3.713,45.771 -9.096,65.971c7.179,0.854 14.233,2.6 21.008,5.2c2.438,-9.088 4.867,-18.171 7.304,-27.258c3.817,-14.242 7.629,-28.483 11.446,-42.721c5.679,-21.196 6.396,-40.675 -2.442,-55.975c-13.942,6.071 -25.171,15.458 -30.042,25.258c0.025,0.188 0.046,0.375 0.071,0.562c1.246,9.588 1.75,19.3 1.75,28.962m-1.821,-29.525l0,0.004c0.025,0.188 0.046,0.371 0.071,0.558c-0.021,-0.163 -0.042,-0.329 -0.067,-0.496c0,-0.021 -0.004,-0.042 -0.004,-0.067" style="fill:#fd6050;"/><path d="M124.606,189.91l-7.3,-27.254c-46.163,16.379 -77.004,60.054 -77.004,109.033l83.817,0c0,-11.462 6.05,-21.508 15.129,-27.125c-1.217,-4.554 -14.646,-54.654 -14.642,-54.654" style="fill:#fdcb50;"/><path d="M187.382,189.91l-14.642,54.654c9.079,5.617 15.129,15.663 15.129,27.125l83.817,0c0,-48.979 -30.842,-92.654 -77.004,-109.033l-7.3,27.254Z" style="fill:#fdcb50;"/><path d="M138.338,89.205c-0.529,3.996 -0.942,8.133 -1.242,12.392l18.896,10.913l18.896,-10.913c-0.3,-4.258 -0.713,-8.388 -1.242,-12.379c-2.754,-20.7 -8.621,-37.621 -17.654,-48.917c-9.037,11.104 -14.904,28.117 -17.654,48.904" style="fill:#d46b5c;"/><path d="M124.606,189.91c-0.004,0 13.425,50.1 14.642,54.654c4.867,-3.012 10.604,-4.75 16.746,-4.75c6.146,0 11.879,1.738 16.746,4.75l14.642,-54.654c-6.775,-2.6 -13.833,-4.342 -21.013,-5.2c-3.438,-0.408 -6.9,-0.617 -10.375,-0.617c-3.475,0 -6.938,0.208 -10.375,0.617c-7.179,0.858 -14.237,2.6 -21.012,5.2" style="fill:#b1d952;"/><path d="M199.857,143.255c-1.75,6.537 -3.504,13.071 -5.254,19.612l2.412,0.646c25.537,9.683 46.196,27.8 59.25,50.492c11.804,-23.817 10.175,-44.683 7.783,-49.987c-10.483,-2.275 -21.842,-1.588 -26.512,-0.679c-0.467,-13.688 -6.017,-30.979 -6.017,-30.979c-8.967,0.304 -24.692,3.433 -31.662,10.896" style="fill:#27a2cc;"/><path d="M112.116,143.282c1.75,6.537 3.5,13.075 5.25,19.612l-2.412,0.646c-25.538,9.683 -46.192,27.8 -59.25,50.492c-11.8,-23.812 -10.171,-44.683 -7.779,-49.987c10.483,-2.275 21.842,-1.588 26.513,-0.679c0.463,-13.688 6.013,-30.979 6.013,-30.979c8.967,0.304 24.692,3.433 31.667,10.896" style="fill:#27a2cc;"/></svg>