<?xml version="1.0" encoding="UTF-8" standalone="no"?><!DOCTYPE svg PUBLIC "-//W3C//DTD SVG 1.1//EN" "http://www.w3.org/Graphics/SVG/1.1/DTD/svg11.dtd"><svg width="100%" height="100%" viewBox="0 0 1253 312" version="1.1" xmlns="http://www.w3.org/2000/svg" xmlns:xlink="http://www.w3.org/1999/xlink" xml:space="preserve" xmlns:serif="http://www.serif.com/" style="fill-rule:evenodd;clip-rule:evenodd;stroke-linejoin:round;stroke-miterlimit:2;"><path d="M0,311.617l1252.637,0l0,-311.617l-1252.637,-0l0,311.617Z" style="fill:#4b17f7;"/><path d="M140.271,167.43c0,0 -51.221,23.612 -61.637,-9.55c0,0 -6.946,-39.754 18.404,-51.212c0,0 20.188,-10.396 50.025,21.192c0,0 -10.096,14.246 -6.792,39.571" style="fill:#bc3c85;fill-rule:nonzero;"/><path d="M150.59,120.562c0,0 -54.729,-13.625 -42.112,-46.008c0,0 19.454,-35.362 46.396,-28.446c0,0 22.254,4.525 25.771,47.829c0,0 -16.792,4.8 -30.054,26.625" style="fill:#bc3c85;fill-rule:nonzero;"/><path d="M188.45,92.249c0,0 -34.046,-44.967 -3.896,-62.25c0,-0 37.346,-15.313 53.971,6.987c0,0 14.483,17.492 -9.967,53.408c0,0 -16.083,-6.804 -40.108,1.854" style="fill:#bc3c85;fill-rule:nonzero;"/><path d="M162.026,209.695c0,0 -23.871,51.1 -53.233,32.504c0,0 -30.971,-25.875 -19.013,-50.992c0,0 8.704,-20.971 51.883,-16.117c0,0 1.488,17.4 20.363,34.604" style="fill:#bc3c85;fill-rule:nonzero;"/><path d="M205.007,227.128c0,0 14.646,54.467 -19.796,59.15c0,0 -40.358,0.146 -47.383,-26.767c0,0 -6.842,-21.654 29.317,-45.742c0,0 12.346,12.35 37.862,13.358" style="fill:#bc3c85;fill-rule:nonzero;"/><path d="M250.935,213.296c0,0 46.733,31.579 23.767,57.667c0,0 -30.408,26.538 -53.338,10.796c0,0 -19.35,-11.887 -7.792,-53.771c0,0 17.417,1.254 37.363,-14.692" style="fill:#bc3c85;fill-rule:nonzero;"/><path d="M276.439,174.805c0,0 56.171,-5.112 54.892,29.621c0,0 -6.758,39.792 -34.479,42.108c0,0 -22.504,3.037 -40.054,-36.713c0,0 14.283,-10.046 19.642,-35.017" style="fill:#bc3c85;fill-rule:nonzero;"/><path d="M272.452,124.679c0,0 40.408,-39.346 61.292,-11.563c0,0 19.812,35.162 -0.262,54.421c0,0 -15.567,16.533 -54.229,-3.287c0,0 4.762,-16.8 -6.8,-39.571" style="fill:#bc3c85;fill-rule:nonzero;"/><path d="M234.628,92.56c0,0 2.188,-56.358 36.463,-50.604c0,0 38.583,11.842 37.3,39.629c0,0 0.108,22.708 -41.575,34.975c0,0 -8.121,-15.463 -32.187,-24" style="fill:#bc3c85;fill-rule:nonzero;"/><path d="M133.44,79.158c42.346,-42.35 111.008,-42.35 153.354,0c42.35,42.346 42.35,111.004 0,153.354c-42.346,42.35 -111.008,42.35 -153.354,0c-42.346,-42.35 -42.346,-111.008 0,-153.354" style="fill:#fdcb50;"/><path d="M101.662,155.81c0,-4.538 0.283,-9.008 0.825,-13.4c27.083,19.804 60.463,31.508 96.587,31.508c45.037,0 85.825,-18.183 115.437,-47.604c2.646,9.379 4.062,19.271 4.062,29.496c0,59.9 -48.558,108.454 -108.458,108.454c-59.9,0 -108.454,-48.554 -108.454,-108.454" style="fill:#fd8f01;"/><path d="M170.997,116.712c21.608,-21.604 56.637,-21.604 78.246,0c21.604,21.608 21.604,56.637 0,78.246c-21.608,21.604 -56.637,21.604 -78.246,0c-21.604,-21.608 -21.604,-56.637 0,-78.246" style="fill:#fd8f01;"/><path d="M156.184,168.233c5.642,24.579 27.646,42.912 53.933,42.912c29.162,0 53.054,-22.562 55.179,-51.179c-20.25,8.962 -42.654,13.954 -66.225,13.954c-14.842,0 -29.217,-1.988 -42.887,-5.688" style="fill:#fd6050;"/><path d="M192.43,104.953l-0,101.712c0,2.433 1.975,4.408 4.408,4.408c2.433,0 4.408,-1.975 4.408,-4.408l0,-46.446l15.513,0c2.433,0 4.408,-1.975 4.408,-4.408c0,-2.438 -1.975,-4.408 -4.408,-4.408l-15.513,0l0,-46.45c0,-2.433 -1.975,-4.408 -4.408,-4.408c-2.433,0 -4.408,1.975 -4.408,4.408" style="fill:#fff;fill-rule:nonzero;"/><path d="M232.269,149.67l0,12.279c0,2.433 1.975,4.408 4.408,4.408c2.438,0 4.408,-1.975 4.408,-4.408l0,-12.279c0,-2.433 -1.971,-4.408 -4.408,-4.408c-2.433,0 -4.408,1.975 -4.408,4.408" style="fill:#fff;fill-rule:nonzero;"/><path d="M212.349,175.73l0,12.279c0,2.433 1.975,4.408 4.408,4.408c2.438,0 4.408,-1.975 4.408,-4.408l0,-12.279c0,-2.433 -1.971,-4.408 -4.408,-4.408c-2.433,0 -4.408,1.975 -4.408,4.408" style="fill:#fff;fill-rule:nonzero;"/><path d="M212.349,123.61l0,12.279c0,2.433 1.975,4.408 4.408,4.408c2.438,0 4.408,-1.975 4.408,-4.408l0,-12.279c0,-2.433 -1.971,-4.408 -4.408,-4.408c-2.433,0 -4.408,1.971 -4.408,4.408" style="fill:#fff;fill-rule:nonzero;"/><path d="M232.269,181.868l0,0.004c0,2.433 1.975,4.408 4.408,4.408c2.438,0 4.408,-1.975 4.408,-4.412c0,-2.433 -1.971,-4.408 -4.408,-4.408c-2.433,0 -4.408,1.975 -4.408,4.408" style="fill:#fff;fill-rule:nonzero;"/><path d="M232.269,129.748l0,0.004c0,2.433 1.975,4.408 4.408,4.408c2.438,0 4.408,-1.979 4.408,-4.412c0,-2.433 -1.971,-4.408 -4.408,-4.408c-2.433,0 -4.408,1.975 -4.408,4.408" style="fill:#fff;fill-rule:nonzero;"/><path d="M183.539,175.728c0,-2.433 -1.971,-4.408 -4.408,-4.408c-2.433,0 -4.408,1.975 -4.408,4.408l0,0.004c0,2.433 1.975,4.408 4.408,4.408c2.438,0 4.408,-1.975 4.408,-4.412" style="fill:#fff;fill-rule:nonzero;"/><path d="M183.539,155.808c0,-2.433 -1.971,-4.408 -4.408,-4.408c-2.433,0 -4.408,1.975 -4.408,4.408l0,0.004c0,2.433 1.975,4.408 4.408,4.408c2.438,0 4.408,-1.979 4.408,-4.412" style="fill:#fff;fill-rule:nonzero;"/><path d="M183.539,135.888c0,-2.433 -1.971,-4.408 -4.408,-4.408c-2.433,0 -4.408,1.975 -4.408,4.408l0,0.004c0,2.433 1.975,4.408 4.408,4.408c2.438,0 4.408,-1.979 4.408,-4.412" style="fill:#fff;fill-rule:nonzero;"/><path d="M120.341,131.755c-2.1,7.842 -3.167,15.938 -3.167,24.054c0,2.433 1.975,4.408 4.408,4.408l8.992,0c0.225,4.008 0.746,7.992 1.571,11.921l-8.687,2.325c-2.35,0.633 -3.746,3.05 -3.117,5.404c0.629,2.35 3.046,3.746 5.4,3.113l12.829,-3.433c1.129,-0.304 2.092,-1.042 2.675,-2.054c0.583,-1.013 0.742,-2.217 0.442,-3.346c-1.604,-5.979 -2.417,-12.15 -2.417,-18.337c0,-2.433 -1.975,-4.408 -4.408,-4.408l-8.754,0c0.229,-4.396 0.804,-8.771 1.721,-13.075l8.458,2.267c2.35,0.629 4.771,-0.767 5.4,-3.121c0.1,-0.379 0.15,-0.762 0.15,-1.142c0,-1.946 -1.3,-3.729 -3.267,-4.254l-12.829,-3.438c-2.354,-0.629 -4.771,0.767 -5.4,3.117" style="fill:#bc3c85;fill-rule:nonzero;"/><path d="M131.24,196.26c-2.108,1.217 -2.829,3.912 -1.613,6.021c4.058,7.033 9.029,13.508 14.771,19.25c0.825,0.825 1.946,1.292 3.117,1.292c1.171,0 2.292,-0.467 3.117,-1.292l6.358,-6.358c2.992,2.675 6.179,5.121 9.537,7.317l-4.496,7.792c-1.217,2.108 -0.496,4.804 1.617,6.021c2.104,1.217 4.8,0.496 6.021,-1.612l6.638,-11.504c0.404,-0.692 0.592,-1.45 0.592,-2.2c0,-1.521 -0.792,-3.004 -2.204,-3.821c-5.358,-3.096 -10.296,-6.883 -14.675,-11.258c-0.825,-0.829 -1.946,-1.292 -3.112,-1.292c-1.171,0 -2.292,0.463 -3.121,1.292l-6.188,6.192c-2.95,-3.271 -5.633,-6.771 -8.029,-10.463l7.583,-4.379c2.104,-1.217 2.829,-3.912 1.612,-6.021c-1.221,-2.112 -3.917,-2.833 -6.025,-1.617l-11.5,6.642Z" style="fill:#bc3c85;fill-rule:nonzero;"/><path d="M228.452,224.242c-5.975,1.604 -12.146,2.412 -18.333,2.412c-2.438,0 -4.408,1.975 -4.408,4.408l0,8.758c-4.4,-0.233 -8.771,-0.808 -13.079,-1.725l2.267,-8.454c0.633,-2.354 -0.767,-4.771 -3.117,-5.4c-2.354,-0.633 -4.771,0.767 -5.4,3.117l-3.438,12.829c-0.629,2.35 0.767,4.767 3.117,5.396c7.842,2.104 15.938,3.167 24.058,3.167c2.433,0 4.408,-1.971 4.408,-4.408l0,-8.992c4.004,-0.221 7.992,-0.746 11.917,-1.567l2.329,8.688c0.629,2.35 3.05,3.746 5.4,3.113c1.971,-0.525 3.271,-2.304 3.271,-4.254c0,-0.375 -0.054,-0.763 -0.154,-1.142l-3.438,-12.829c-0.629,-2.35 -3.046,-3.75 -5.4,-3.117" style="fill:#bc3c85;fill-rule:nonzero;"/><path d="M271.472,191.232c-3.096,5.358 -6.883,10.296 -11.258,14.671c-1.721,1.725 -1.721,4.517 0,6.238l6.192,6.192c-3.271,2.946 -6.775,5.629 -10.467,8.029l-4.375,-7.583c-1.221,-2.108 -3.917,-2.833 -6.025,-1.612c-2.104,1.217 -2.829,3.912 -1.613,6.021l6.642,11.5c1.217,2.108 3.912,2.833 6.021,1.617c7.033,-4.062 13.508,-9.029 19.25,-14.771c1.721,-1.725 1.721,-4.513 0,-6.238l-6.358,-6.358c2.675,-2.992 5.121,-6.179 7.317,-9.537l7.787,4.496c2.113,1.217 4.808,0.496 6.025,-1.612c0.4,-0.696 0.587,-1.45 0.587,-2.2c0,-1.521 -0.787,-3.008 -2.204,-3.825l-11.496,-6.638c-1.017,-0.583 -2.217,-0.742 -3.346,-0.442c-1.133,0.304 -2.096,1.042 -2.679,2.054" style="fill:#bc3c85;fill-rule:nonzero;"/><path d="M281.668,132.074c-1.129,0.304 -2.096,1.042 -2.679,2.054c-0.583,1.012 -0.742,2.217 -0.438,3.346c1.6,5.979 2.412,12.15 2.412,18.337c0,2.433 1.975,4.408 4.408,4.408l8.754,0c-0.229,4.396 -0.804,8.767 -1.721,13.075l-8.458,-2.267c-2.35,-0.629 -4.771,0.767 -5.396,3.117c-0.633,2.354 0.762,4.771 3.113,5.4l12.829,3.437c2.354,0.629 4.771,-0.767 5.4,-3.117c2.104,-7.842 3.171,-15.938 3.171,-24.054c0,-2.438 -1.975,-4.408 -4.413,-4.408l-8.992,0c-0.225,-4.008 -0.746,-7.996 -1.571,-11.921l8.688,-2.325c2.35,-0.633 3.75,-3.05 3.121,-5.404c-0.633,-2.35 -3.05,-3.746 -5.404,-3.117l-12.825,3.438Z" style="fill:#bc3c85;fill-rule:nonzero;"/><path d="M250.567,76.932l-6.642,11.5c-1.217,2.108 -0.496,4.804 1.617,6.021c5.358,3.096 10.296,6.888 14.671,11.263c1.721,1.721 4.512,1.721 6.233,0l6.192,-6.192c2.946,3.271 5.633,6.771 8.029,10.463l-7.583,4.379c-2.108,1.217 -2.829,3.908 -1.613,6.021c1.217,2.108 3.913,2.833 6.021,1.613l11.504,-6.638c1.413,-0.817 2.204,-2.3 2.204,-3.821c0,-0.75 -0.192,-1.508 -0.596,-2.2c-4.054,-7.033 -9.025,-13.508 -14.767,-19.25c-0.829,-0.829 -1.95,-1.292 -3.121,-1.292c-1.167,0 -2.288,0.463 -3.113,1.292l-6.363,6.358c-2.987,-2.675 -6.179,-5.125 -9.537,-7.321l4.5,-7.787c1.217,-2.108 0.496,-4.804 -1.617,-6.021c-2.108,-1.217 -4.804,-0.496 -6.021,1.612" style="fill:#bc3c85;fill-rule:nonzero;"/><path d="M205.709,67.275l0,8.996c-4.008,0.221 -7.992,0.746 -11.921,1.567l-2.329,-8.688c-0.629,-2.35 -3.046,-3.746 -5.396,-3.117c-2.354,0.629 -3.75,3.05 -3.121,5.4l3.438,12.829c0.304,1.129 1.042,2.092 2.054,2.675c1.012,0.583 2.217,0.746 3.346,0.442c5.979,-1.604 12.146,-2.412 18.337,-2.412c2.433,0 4.408,-1.975 4.408,-4.412l0,-8.754c4.396,0.229 8.771,0.808 13.075,1.721l-2.267,8.458c-0.629,2.35 0.767,4.771 3.117,5.4c2.354,0.629 4.771,-0.767 5.4,-3.117l3.438,-12.829c0.104,-0.383 0.15,-0.767 0.15,-1.142c0,-1.95 -1.296,-3.729 -3.267,-4.258c-7.842,-2.1 -15.933,-3.167 -24.058,-3.167c-2.429,0 -4.404,1.975 -4.404,4.408" style="fill:#bc3c85;fill-rule:nonzero;"/><path d="M148.765,120.386c3.092,-5.358 6.883,-10.296 11.258,-14.671c1.721,-1.721 1.721,-4.512 0,-6.237l-6.192,-6.188c3.271,-2.946 6.771,-5.633 10.463,-8.033l4.379,7.583c1.217,2.112 3.912,2.833 6.021,1.617c1.413,-0.821 2.208,-2.3 2.208,-3.825c0,-0.746 -0.192,-1.504 -0.596,-2.2l-6.637,-11.5c-1.221,-2.108 -3.912,-2.829 -6.021,-1.613c-7.033,4.058 -13.508,9.029 -19.25,14.771c-1.721,1.721 -1.721,4.513 0,6.233l6.358,6.362c-2.675,2.988 -5.125,6.179 -7.321,9.533l-7.787,-4.496c-2.108,-1.217 -4.804,-0.492 -6.021,1.617c-1.221,2.108 -0.496,4.804 1.612,6.021l11.5,6.638c2.108,1.221 4.804,0.496 6.025,-1.612" style="fill:#bc3c85;fill-rule:nonzero;"/><path d="M555.745,167.43c0,0 -51.221,23.612 -61.637,-9.55c0,0 -6.946,-39.754 18.404,-51.212c0,0 20.188,-10.396 50.025,21.192c0,0 -10.096,14.246 -6.792,39.571" style="fill:#bc3c85;fill-rule:nonzero;"/><path d="M566.064,120.562c0,0 -54.729,-13.625 -42.112,-46.008c0,0 19.454,-35.362 46.396,-28.446c0,0 22.254,4.525 25.771,47.829c0,0 -16.792,4.8 -30.054,26.625" style="fill:#bc3c85;fill-rule:nonzero;"/><path d="M603.924,92.249c0,0 -34.05,-44.967 -3.896,-62.25c0,0 37.346,-15.313 53.971,6.987c0,0 14.483,17.492 -9.967,53.408c0,0 -16.083,-6.804 -40.108,1.854" style="fill:#bc3c85;fill-rule:nonzero;"/><path d="M577.5,209.695c0,0 -23.871,51.1 -53.233,32.504c0,0 -30.971,-25.875 -19.012,-50.992c0,0 8.704,-20.971 51.883,-16.117c0,0 1.487,17.4 20.362,34.604" style="fill:#bc3c85;fill-rule:nonzero;"/><path d="M620.481,227.128c0,0 14.646,54.467 -19.796,59.15c0,0 -40.358,0.146 -47.383,-26.767c0,0 -6.842,-21.654 29.317,-45.742c0,0 12.346,12.35 37.863,13.358" style="fill:#bc3c85;fill-rule:nonzero;"/><path d="M666.409,213.296c0,0 46.733,31.579 23.767,57.667c0,0 -30.408,26.538 -53.337,10.796c0,0 -19.35,-11.887 -7.792,-53.771c0,0 17.417,1.254 37.362,-14.692" style="fill:#bc3c85;fill-rule:nonzero;"/><path d="M691.912,174.805c0,0 56.171,-5.112 54.892,29.621c0,0 -6.758,39.792 -34.479,42.108c0,0 -22.504,3.037 -40.054,-36.713c0,0 14.283,-10.046 19.642,-35.017" style="fill:#bc3c85;fill-rule:nonzero;"/><path d="M687.926,124.679c0,0 40.408,-39.346 61.292,-11.562c0,0 19.808,35.162 -0.262,54.421c0,0 -15.567,16.533 -54.229,-3.287c0,0 4.763,-16.8 -6.8,-39.571" style="fill:#bc3c85;fill-rule:nonzero;"/><path d="M650.101,92.56c0,0 2.188,-56.358 36.463,-50.604c0,0 38.583,11.842 37.3,39.629c0,0 0.108,22.708 -41.575,34.975c0,0 -8.121,-15.463 -32.188,-24" style="fill:#bc3c85;fill-rule:nonzero;"/><path d="M548.913,79.158c42.346,-42.35 111.008,-42.35 153.354,0c42.35,42.346 42.35,111.004 0,153.354c-42.346,42.35 -111.008,42.35 -153.354,0c-42.346,-42.35 -42.346,-111.008 0,-153.354" style="fill:#fdcb50;"/><path d="M517.136,155.81c0,-4.538 0.283,-9.008 0.825,-13.4c27.083,19.804 60.462,31.508 96.587,31.508c45.038,0 85.825,-18.183 115.438,-47.604c2.646,9.379 4.062,19.271 4.062,29.496c0,59.9 -48.558,108.454 -108.458,108.454c-59.9,0 -108.454,-48.554 -108.454,-108.454" style="fill:#fd8f01;"/><path d="M586.47,116.712c21.608,-21.604 56.638,-21.604 78.246,0c21.604,21.608 21.604,56.637 0,78.246c-21.608,21.604 -56.638,21.604 -78.246,0c-21.604,-21.608 -21.604,-56.637 0,-78.246" style="fill:#fd8f01;"/><path d="M571.657,168.233c5.642,24.579 27.646,42.912 53.933,42.912c29.162,0 53.054,-22.562 55.179,-51.179c-20.25,8.962 -42.654,13.954 -66.225,13.954c-14.842,0 -29.217,-1.988 -42.888,-5.688" style="fill:#fd6050;"/><path d="M607.903,104.953l0,101.712c0,2.433 1.971,4.408 4.408,4.408c2.433,0 4.408,-1.975 4.408,-4.408l0,-46.446l15.513,0c2.433,0 4.408,-1.975 4.408,-4.408c0,-2.438 -1.975,-4.408 -4.408,-4.408l-15.513,0l0,-46.45c0,-2.433 -1.975,-4.408 -4.408,-4.408c-2.438,0 -4.408,1.975 -4.408,4.408" style="fill:#fff;fill-rule:nonzero;"/><path d="M647.743,149.67l0,12.279c0,2.433 1.975,4.408 4.408,4.408c2.438,0 4.408,-1.975 4.408,-4.408l0,-12.279c0,-2.433 -1.971,-4.408 -4.408,-4.408c-2.433,0 -4.408,1.975 -4.408,4.408" style="fill:#fff;fill-rule:nonzero;"/><path d="M627.823,175.73l0,12.279c0,2.433 1.975,4.408 4.408,4.408c2.438,0 4.408,-1.975 4.408,-4.408l0,-12.279c0,-2.433 -1.971,-4.408 -4.408,-4.408c-2.433,0 -4.408,1.975 -4.408,4.408" style="fill:#fff;fill-rule:nonzero;"/><path d="M627.823,123.61l0,12.279c0,2.433 1.975,4.408 4.408,4.408c2.438,0 4.408,-1.975 4.408,-4.408l0,-12.279c0,-2.433 -1.971,-4.408 -4.408,-4.408c-2.433,0 -4.408,1.971 -4.408,4.408" style="fill:#fff;fill-rule:nonzero;"/><path d="M647.743,181.868l0,0.004c0,2.433 1.975,4.408 4.408,4.408c2.438,0 4.408,-1.975 4.408,-4.412c0,-2.433 -1.971,-4.408 -4.408,-4.408c-2.433,0 -4.408,1.975 -4.408,4.408" style="fill:#fff;fill-rule:nonzero;"/><path d="M647.743,129.748l0,0.004c0,2.433 1.975,4.408 4.408,4.408c2.438,0 4.408,-1.979 4.408,-4.412c0,-2.433 -1.971,-4.408 -4.408,-4.408c-2.433,0 -4.408,1.975 -4.408,4.408" style="fill:#fff;fill-rule:nonzero;"/><path d="M599.012,175.728c0,-2.433 -1.971,-4.408 -4.408,-4.408c-2.433,0 -4.408,1.975 -4.408,4.408l0,0.004c0,2.433 1.975,4.408 4.408,4.408c2.438,0 4.408,-1.975 4.408,-4.412" style="fill:#fff;fill-rule:nonzero;"/><path d="M599.012,155.808c0,-2.433 -1.971,-4.408 -4.408,-4.408c-2.433,0 -4.408,1.975 -4.408,4.408l0,0.004c0,2.433 1.975,4.408 4.408,4.408c2.438,0 4.408,-1.979 4.408,-4.412" style="fill:#fff;fill-rule:nonzero;"/><path d="M599.012,135.888c0,-2.433 -1.971,-4.408 -4.408,-4.408c-2.433,0 -4.408,1.975 -4.408,4.408l0,0.004c0,2.433 1.975,4.408 4.408,4.408c2.438,0 4.408,-1.979 4.408,-4.412" style="fill:#fff;fill-rule:nonzero;"/><path d="M535.815,131.755c-2.1,7.842 -3.167,15.938 -3.167,24.054c0,2.433 1.975,4.408 4.408,4.408l8.992,0c0.225,4.008 0.746,7.992 1.571,11.921l-8.688,2.325c-2.35,0.633 -3.746,3.05 -3.117,5.404c0.629,2.35 3.046,3.746 5.4,3.113l12.829,-3.433c1.129,-0.304 2.092,-1.042 2.675,-2.054c0.583,-1.013 0.742,-2.217 0.442,-3.346c-1.604,-5.979 -2.417,-12.15 -2.417,-18.337c0,-2.433 -1.975,-4.408 -4.408,-4.408l-8.754,0c0.229,-4.396 0.804,-8.771 1.721,-13.075l8.458,2.267c2.35,0.629 4.771,-0.767 5.4,-3.121c0.1,-0.379 0.15,-0.762 0.15,-1.142c0,-1.946 -1.3,-3.729 -3.267,-4.254l-12.829,-3.438c-2.354,-0.629 -4.771,0.767 -5.4,3.117" style="fill:#bc3c85;fill-rule:nonzero;"/><path d="M546.713,196.26c-2.108,1.217 -2.829,3.912 -1.612,6.021c4.058,7.033 9.029,13.508 14.771,19.25c0.825,0.825 1.946,1.292 3.117,1.292c1.171,0 2.292,-0.467 3.117,-1.292l6.358,-6.358c2.992,2.675 6.179,5.121 9.538,7.317l-4.496,7.792c-1.217,2.108 -0.496,4.804 1.617,6.021c2.108,1.217 4.804,0.496 6.021,-1.612l6.638,-11.504c0.404,-0.692 0.596,-1.45 0.596,-2.2c0,-1.521 -0.792,-3.004 -2.208,-3.821c-5.358,-3.096 -10.296,-6.883 -14.675,-11.258c-0.825,-0.829 -1.946,-1.292 -3.112,-1.292c-1.171,0 -2.292,0.463 -3.121,1.292l-6.188,6.192c-2.946,-3.271 -5.633,-6.771 -8.029,-10.463l7.583,-4.379c2.108,-1.217 2.829,-3.912 1.613,-6.021c-1.221,-2.112 -3.917,-2.833 -6.021,-1.617l-11.504,6.642Z" style="fill:#bc3c85;fill-rule:nonzero;"/><path d="M643.926,224.242c-5.975,1.604 -12.146,2.412 -18.333,2.412c-2.438,0 -4.408,1.975 -4.408,4.408l0,8.758c-4.4,-0.233 -8.771,-0.808 -13.079,-1.725l2.267,-8.454c0.633,-2.354 -0.767,-4.771 -3.117,-5.4c-2.354,-0.633 -4.771,0.767 -5.4,3.117l-3.438,12.829c-0.629,2.35 0.767,4.767 3.117,5.396c7.842,2.104 15.937,3.167 24.058,3.167c2.433,0 4.408,-1.971 4.408,-4.408l0,-8.992c4.004,-0.221 7.992,-0.746 11.917,-1.567l2.329,8.688c0.629,2.35 3.046,3.746 5.4,3.113c1.971,-0.525 3.271,-2.304 3.271,-4.254c0,-0.375 -0.054,-0.763 -0.154,-1.142l-3.438,-12.829c-0.629,-2.35 -3.046,-3.75 -5.4,-3.117" style="fill:#bc3c85;fill-rule:nonzero;"/><path d="M686.947,191.232c-3.096,5.358 -6.883,10.296 -11.258,14.671c-1.721,1.725 -1.721,4.517 0,6.238l6.192,6.192c-3.275,2.946 -6.775,5.629 -10.467,8.029l-4.375,-7.583c-1.221,-2.108 -3.917,-2.833 -6.025,-1.612c-2.104,1.217 -2.829,3.912 -1.612,6.021l6.642,11.5c1.217,2.108 3.913,2.833 6.021,1.617c7.033,-4.062 13.508,-9.029 19.25,-14.771c1.721,-1.725 1.721,-4.513 0,-6.238l-6.358,-6.358c2.675,-2.992 5.121,-6.179 7.317,-9.537l7.788,4.496c2.113,1.217 4.808,0.496 6.025,-1.612c0.4,-0.696 0.588,-1.45 0.588,-2.2c0,-1.521 -0.788,-3.008 -2.204,-3.825l-11.5,-6.638c-1.012,-0.583 -2.212,-0.742 -3.342,-0.442c-1.133,0.304 -2.096,1.042 -2.679,2.054" style="fill:#bc3c85;fill-rule:nonzero;"/><path d="M697.142,132.074c-1.129,0.304 -2.096,1.042 -2.679,2.054c-0.583,1.012 -0.742,2.217 -0.438,3.346c1.6,5.979 2.413,12.15 2.413,18.337c0,2.433 1.975,4.408 4.408,4.408l8.754,0c-0.229,4.396 -0.804,8.767 -1.721,13.075l-8.458,-2.267c-2.35,-0.629 -4.771,0.767 -5.396,3.117c-0.633,2.354 0.763,4.771 3.112,5.4l12.829,3.437c2.354,0.629 4.771,-0.767 5.4,-3.117c2.104,-7.842 3.167,-15.938 3.167,-24.054c0,-2.438 -1.971,-4.408 -4.408,-4.408l-8.992,0c-0.225,-4.008 -0.746,-7.996 -1.571,-11.921l8.688,-2.325c2.35,-0.633 3.75,-3.05 3.121,-5.404c-0.633,-2.35 -3.05,-3.746 -5.404,-3.117l-12.825,3.438Z" style="fill:#bc3c85;fill-rule:nonzero;"/><path d="M666.041,76.932l-6.642,11.5c-1.217,2.108 -0.496,4.804 1.617,6.021c5.358,3.096 10.296,6.888 14.671,11.263c1.721,1.721 4.512,1.721 6.233,0l6.192,-6.192c2.946,3.271 5.633,6.771 8.029,10.463l-7.583,4.379c-2.108,1.217 -2.829,3.908 -1.612,6.021c1.217,2.108 3.912,2.833 6.021,1.613l11.504,-6.638c1.413,-0.817 2.204,-2.3 2.204,-3.821c0,-0.75 -0.192,-1.508 -0.596,-2.2c-4.054,-7.033 -9.025,-13.508 -14.767,-19.25c-0.829,-0.829 -1.95,-1.292 -3.121,-1.292c-1.167,0 -2.288,0.463 -3.112,1.292l-6.363,6.358c-2.987,-2.675 -6.179,-5.125 -9.538,-7.321l4.496,-7.787c1.221,-2.108 0.5,-4.804 -1.612,-6.021c-2.108,-1.217 -4.804,-0.496 -6.021,1.612" style="fill:#bc3c85;fill-rule:nonzero;"/><path d="M621.183,67.275l0,8.996c-4.008,0.221 -7.992,0.746 -11.921,1.567l-2.329,-8.688c-0.629,-2.35 -3.046,-3.746 -5.396,-3.117c-2.354,0.629 -3.75,3.05 -3.121,5.4l3.438,12.829c0.304,1.129 1.042,2.092 2.054,2.675c1.013,0.583 2.217,0.746 3.346,0.442c5.979,-1.604 12.146,-2.412 18.338,-2.412c2.433,0 4.408,-1.975 4.408,-4.412l0,-8.754c4.396,0.229 8.771,0.808 13.075,1.721l-2.267,8.458c-0.629,2.35 0.767,4.771 3.117,5.4c2.354,0.629 4.771,-0.767 5.4,-3.117l3.438,-12.829c0.104,-0.383 0.15,-0.767 0.15,-1.142c0,-1.95 -1.296,-3.729 -3.267,-4.258c-7.842,-2.1 -15.933,-3.167 -24.058,-3.167c-2.429,0 -4.404,1.975 -4.404,4.408" style="fill:#bc3c85;fill-rule:nonzero;"/><path d="M564.238,120.386c3.092,-5.358 6.883,-10.296 11.258,-14.671c1.721,-1.721 1.721,-4.512 0,-6.237l-6.192,-6.188c3.271,-2.946 6.771,-5.633 10.462,-8.033l4.379,7.583c1.217,2.112 3.912,2.833 6.021,1.617c1.413,-0.821 2.208,-2.3 2.208,-3.825c0,-0.746 -0.192,-1.504 -0.596,-2.2l-6.638,-11.5c-1.221,-2.108 -3.913,-2.829 -6.021,-1.613c-7.033,4.058 -13.508,9.029 -19.25,14.771c-1.721,1.721 -1.721,4.513 0,6.233l6.358,6.362c-2.675,2.988 -5.125,6.179 -7.321,9.533l-7.788,-4.496c-2.108,-1.217 -4.804,-0.492 -6.021,1.617c-1.221,2.108 -0.496,4.804 1.612,6.021l11.5,6.638c2.108,1.221 4.804,0.496 6.025,-1.612" style="fill:#bc3c85;fill-rule:nonzero;"/><path d="M971.219,167.43c0,0 -51.221,23.612 -61.638,-9.55c0,0 -6.946,-39.754 18.404,-51.212c0,0 20.188,-10.396 50.025,21.192c0,0 -10.096,14.246 -6.792,39.571" style="fill:#bc3c85;fill-rule:nonzero;"/><path d="M981.538,120.562c0,0 -54.729,-13.625 -42.112,-46.008c0,0 19.454,-35.362 46.396,-28.446c0,0 22.254,4.525 25.771,47.829c0,0 -16.792,4.8 -30.054,26.625" style="fill:#bc3c85;fill-rule:nonzero;"/><path d="M1019.398,92.249c0,0 -34.05,-44.967 -3.896,-62.25c0,0 37.346,-15.313 53.971,6.987c0,0 14.483,17.492 -9.967,53.408c0,0 -16.083,-6.804 -40.108,1.854" style="fill:#bc3c85;fill-rule:nonzero;"/><path d="M992.974,209.695c0,0 -23.871,51.1 -53.233,32.504c0,0 -30.971,-25.875 -19.013,-50.992c0,0 8.704,-20.971 51.883,-16.117c0,0 1.487,17.4 20.362,34.604" style="fill:#bc3c85;fill-rule:nonzero;"/><path d="M1035.955,227.128c0,0 14.646,54.467 -19.796,59.15c0,0 -40.358,0.146 -47.383,-26.767c0,0 -6.842,-21.654 29.317,-45.742c0,0 12.346,12.35 37.862,13.358" style="fill:#bc3c85;fill-rule:nonzero;"/><path d="M1081.883,213.296c0,0 46.733,31.579 23.767,57.667c0,0 -30.408,26.538 -53.337,10.796c0,0 -19.35,-11.887 -7.792,-53.771c0,0 17.417,1.254 37.362,-14.692" style="fill:#bc3c85;fill-rule:nonzero;"/><path d="M1107.386,174.805c0,0 56.171,-5.112 54.892,29.621c0,0 -6.758,39.792 -34.479,42.108c0,0 -22.504,3.037 -40.054,-36.713c0,0 14.283,-10.046 19.642,-35.017" style="fill:#bc3c85;fill-rule:nonzero;"/><path d="M1103.4,124.679c0,0 40.408,-39.346 61.292,-11.562c0,0 19.808,35.162 -0.263,54.421c0,0 -15.567,16.533 -54.229,-3.287c0,0 4.763,-16.8 -6.8,-39.571" style="fill:#bc3c85;fill-rule:nonzero;"/><path d="M1065.575,92.56c0,0 2.188,-56.358 36.463,-50.604c0,0 38.583,11.842 37.3,39.629c0,0 0.108,22.708 -41.575,34.975c0,0 -8.121,-15.463 -32.188,-24" style="fill:#bc3c85;fill-rule:nonzero;"/><path d="M964.387,79.158c42.346,-42.35 111.008,-42.35 153.354,0c42.35,42.346 42.35,111.004 0,153.354c-42.346,42.35 -111.008,42.35 -153.354,0c-42.346,-42.35 -42.346,-111.008 0,-153.354" style="fill:#fdcb50;"/><path d="M932.61,155.81c0,-4.538 0.283,-9.008 0.825,-13.4c27.083,19.804 60.462,31.508 96.587,31.508c45.038,0 85.825,-18.183 115.438,-47.604c2.646,9.379 4.058,19.271 4.058,29.496c0,59.9 -48.554,108.454 -108.454,108.454c-59.9,0 -108.454,-48.554 -108.454,-108.454" style="fill:#fd8f01;"/><path d="M1001.944,116.712c21.608,-21.604 56.638,-21.604 78.246,0c21.604,21.608 21.604,56.637 0,78.246c-21.608,21.604 -56.638,21.604 -78.246,0c-21.604,-21.608 -21.604,-56.637 0,-78.246" style="fill:#fd8f01;"/><path d="M987.131,168.233c5.642,24.579 27.646,42.912 53.933,42.912c29.162,0 53.054,-22.562 55.179,-51.179c-20.25,8.962 -42.654,13.954 -66.225,13.954c-14.842,0 -29.217,-1.988 -42.888,-5.688" style="fill:#fd6050;"/><path d="M1023.378,104.953l0,101.712c0,2.433 1.971,4.408 4.408,4.408c2.433,0 4.408,-1.975 4.408,-4.408l0,-46.446l15.513,0c2.433,0 4.408,-1.975 4.408,-4.408c0,-2.438 -1.975,-4.408 -4.408,-4.408l-15.513,0l0,-46.45c0,-2.433 -1.975,-4.408 -4.408,-4.408c-2.438,0 -4.408,1.975 -4.408,4.408" style="fill:#fff;fill-rule:nonzero;"/><path d="M1063.217,149.67l0,12.279c0,2.433 1.975,4.408 4.408,4.408c2.438,0 4.408,-1.975 4.408,-4.408l0,-12.279c0,-2.433 -1.971,-4.408 -4.408,-4.408c-2.433,0 -4.408,1.975 -4.408,4.408" style="fill:#fff;fill-rule:nonzero;"/><path d="M1043.297,175.73l0,12.279c0,2.433 1.975,4.408 4.408,4.408c2.438,0 4.408,-1.975 4.408,-4.408l0,-12.279c0,-2.433 -1.971,-4.408 -4.408,-4.408c-2.433,0 -4.408,1.975 -4.408,4.408" style="fill:#fff;fill-rule:nonzero;"/><path d="M1043.297,123.61l0,12.279c0,2.433 1.975,4.408 4.408,4.408c2.438,0 4.408,-1.975 4.408,-4.408l0,-12.279c0,-2.433 -1.971,-4.408 -4.408,-4.408c-2.433,0 -4.408,1.971 -4.408,4.408" style="fill:#fff;fill-rule:nonzero;"/><path d="M1063.217,181.868l0,0.004c0,2.433 1.975,4.408 4.408,4.408c2.438,0 4.408,-1.975 4.408,-4.412c0,-2.433 -1.971,-4.408 -4.408,-4.408c-2.433,0 -4.408,1.975 -4.408,4.408" style="fill:#fff;fill-rule:nonzero;"/><path d="M1063.217,129.748l0,0.004c0,2.433 1.975,4.408 4.408,4.408c2.438,0 4.408,-1.979 4.408,-4.412c0,-2.433 -1.971,-4.408 -4.408,-4.408c-2.433,0 -4.408,1.975 -4.408,4.408" style="fill:#fff;fill-rule:nonzero;"/><path d="M1014.486,175.728c0,-2.433 -1.971,-4.408 -4.408,-4.408c-2.433,0 -4.408,1.975 -4.408,4.408l0,0.004c0,2.433 1.975,4.408 4.408,4.408c2.438,0 4.408,-1.975 4.408,-4.412" style="fill:#fff;fill-rule:nonzero;"/><path d="M1014.486,155.808c0,-2.433 -1.971,-4.408 -4.408,-4.408c-2.433,0 -4.408,1.975 -4.408,4.408l0,0.004c0,2.433 1.975,4.408 4.408,4.408c2.438,0 4.408,-1.979 4.408,-4.412" style="fill:#fff;fill-rule:nonzero;"/><path d="M1014.486,135.888c0,-2.433 -1.971,-4.408 -4.408,-4.408c-2.433,0 -4.408,1.975 -4.408,4.408l0,0.004c0,2.433 1.975,4.408 4.408,4.408c2.438,0 4.408,-1.979 4.408,-4.412" style="fill:#fff;fill-rule:nonzero;"/><path d="M951.289,131.755c-2.1,7.842 -3.167,15.938 -3.167,24.054c0,2.433 1.975,4.408 4.408,4.408l8.992,0c0.225,4.008 0.746,7.992 1.571,11.921l-8.688,2.325c-2.35,0.633 -3.746,3.05 -3.117,5.404c0.629,2.35 3.046,3.746 5.4,3.113l12.829,-3.433c1.129,-0.304 2.092,-1.042 2.675,-2.054c0.583,-1.013 0.742,-2.217 0.442,-3.346c-1.604,-5.979 -2.417,-12.15 -2.417,-18.337c0,-2.433 -1.975,-4.408 -4.408,-4.408l-8.754,0c0.229,-4.396 0.804,-8.771 1.721,-13.075l8.458,2.267c2.35,0.629 4.771,-0.767 5.4,-3.121c0.1,-0.379 0.15,-0.762 0.15,-1.142c0,-1.946 -1.3,-3.729 -3.267,-4.254l-12.829,-3.438c-2.354,-0.629 -4.771,0.767 -5.4,3.117" style="fill:#bc3c85;fill-rule:nonzero;"/><path d="M962.187,196.26c-2.108,1.217 -2.829,3.912 -1.612,6.021c4.058,7.033 9.029,13.508 14.771,19.25c0.825,0.825 1.946,1.292 3.117,1.292c1.171,0 2.292,-0.467 3.117,-1.292l6.358,-6.358c2.992,2.675 6.179,5.121 9.538,7.317l-4.496,7.792c-1.217,2.108 -0.496,4.804 1.617,6.021c2.108,1.217 4.804,0.496 6.021,-1.612l6.638,-11.504c0.404,-0.692 0.596,-1.45 0.596,-2.2c0,-1.521 -0.792,-3.004 -2.208,-3.821c-5.358,-3.096 -10.296,-6.883 -14.675,-11.258c-0.825,-0.829 -1.946,-1.292 -3.112,-1.292c-1.171,0 -2.292,0.463 -3.121,1.292l-6.188,6.192c-2.946,-3.271 -5.633,-6.771 -8.029,-10.463l7.583,-4.379c2.108,-1.217 2.829,-3.912 1.613,-6.021c-1.221,-2.112 -3.917,-2.833 -6.025,-1.617l-11.5,6.642Z" style="fill:#bc3c85;fill-rule:nonzero;"/><path d="M1059.4,224.242c-5.979,1.604 -12.146,2.412 -18.333,2.412c-2.438,0 -4.408,1.975 -4.408,4.408l0,8.758c-4.4,-0.233 -8.771,-0.808 -13.079,-1.725l2.267,-8.454c0.633,-2.354 -0.767,-4.771 -3.117,-5.4c-2.354,-0.633 -4.771,0.767 -5.4,3.117l-3.438,12.829c-0.629,2.35 0.767,4.767 3.117,5.396c7.842,2.104 15.938,3.167 24.058,3.167c2.433,0 4.408,-1.971 4.408,-4.408l0,-8.992c4.004,-0.221 7.992,-0.746 11.917,-1.567l2.329,8.688c0.629,2.35 3.046,3.746 5.4,3.113c1.971,-0.525 3.267,-2.304 3.267,-4.254c0,-0.375 -0.05,-0.763 -0.15,-1.142l-3.438,-12.829c-0.629,-2.35 -3.046,-3.75 -5.4,-3.117" style="fill:#bc3c85;fill-rule:nonzero;"/><path d="M1102.42,191.232c-3.096,5.358 -6.883,10.296 -11.258,14.671c-1.721,1.725 -1.721,4.517 0,6.238l6.192,6.192c-3.275,2.946 -6.775,5.629 -10.467,8.029l-4.375,-7.583c-1.221,-2.108 -3.917,-2.833 -6.025,-1.612c-2.104,1.217 -2.829,3.912 -1.613,6.021l6.642,11.5c1.217,2.108 3.912,2.833 6.021,1.617c7.033,-4.062 13.508,-9.029 19.25,-14.771c1.721,-1.725 1.721,-4.513 0,-6.238l-6.358,-6.358c2.675,-2.992 5.121,-6.179 7.317,-9.537l7.788,4.496c2.112,1.217 4.808,0.496 6.025,-1.612c0.4,-0.696 0.588,-1.45 0.588,-2.2c0,-1.521 -0.788,-3.008 -2.204,-3.825l-11.5,-6.638c-1.013,-0.583 -2.213,-0.742 -3.342,-0.442c-1.133,0.304 -2.096,1.042 -2.679,2.054" style="fill:#bc3c85;fill-rule:nonzero;"/><path d="M1112.616,132.074c-1.129,0.304 -2.096,1.042 -2.679,2.054c-0.583,1.012 -0.742,2.217 -0.438,3.346c1.6,5.979 2.413,12.15 2.413,18.337c0,2.433 1.975,4.408 4.408,4.408l8.754,0c-0.229,4.396 -0.804,8.767 -1.721,13.075l-8.458,-2.267c-2.35,-0.629 -4.771,0.767 -5.396,3.117c-0.633,2.354 0.763,4.771 3.113,5.4l12.829,3.437c2.354,0.629 4.771,-0.767 5.4,-3.117c2.104,-7.842 3.167,-15.938 3.167,-24.054c0,-2.438 -1.971,-4.408 -4.408,-4.408l-8.992,0c-0.225,-4.008 -0.746,-7.996 -1.571,-11.921l8.688,-2.325c2.35,-0.633 3.75,-3.05 3.121,-5.404c-0.633,-2.35 -3.05,-3.746 -5.404,-3.117l-12.825,3.438Z" style="fill:#bc3c85;fill-rule:nonzero;"/><path d="M1081.515,76.932l-6.642,11.5c-1.217,2.108 -0.496,4.804 1.617,6.021c5.358,3.096 10.296,6.888 14.671,11.263c1.721,1.721 4.513,1.721 6.233,0l6.192,-6.192c2.946,3.271 5.629,6.771 8.029,10.463l-7.583,4.379c-2.108,1.217 -2.829,3.908 -1.612,6.021c1.217,2.108 3.913,2.833 6.021,1.613l11.504,-6.638c1.412,-0.817 2.204,-2.3 2.204,-3.821c0,-0.75 -0.192,-1.508 -0.596,-2.2c-4.054,-7.033 -9.025,-13.508 -14.767,-19.25c-0.829,-0.829 -1.95,-1.292 -3.121,-1.292c-1.167,0 -2.287,0.463 -3.112,1.292l-6.362,6.358c-2.992,-2.675 -6.179,-5.125 -9.538,-7.321l4.496,-7.787c1.221,-2.108 0.5,-4.804 -1.612,-6.021c-2.108,-1.217 -4.804,-0.496 -6.021,1.612" style="fill:#bc3c85;fill-rule:nonzero;"/><path d="M1036.657,67.275l0,8.996c-4.008,0.221 -7.992,0.746 -11.921,1.567l-2.329,-8.688c-0.629,-2.35 -3.046,-3.746 -5.396,-3.117c-2.354,0.629 -3.75,3.05 -3.121,5.4l3.438,12.829c0.304,1.129 1.042,2.092 2.054,2.675c1.013,0.583 2.217,0.746 3.346,0.442c5.979,-1.604 12.146,-2.412 18.338,-2.412c2.433,0 4.408,-1.975 4.408,-4.412l0,-8.754c4.396,0.229 8.771,0.808 13.075,1.721l-2.267,8.458c-0.629,2.35 0.767,4.771 3.117,5.4c2.354,0.629 4.771,-0.767 5.4,-3.117l3.438,-12.829c0.104,-0.383 0.15,-0.767 0.15,-1.142c0,-1.95 -1.296,-3.729 -3.267,-4.258c-7.842,-2.1 -15.933,-3.167 -24.058,-3.167c-2.429,0 -4.404,1.975 -4.404,4.408" style="fill:#bc3c85;fill-rule:nonzero;"/><path d="M979.712,120.386c3.092,-5.358 6.883,-10.296 11.258,-14.671c1.721,-1.721 1.721,-4.512 0,-6.237l-6.192,-6.188c3.271,-2.946 6.771,-5.633 10.462,-8.033l4.379,7.583c1.217,2.112 3.912,2.833 6.021,1.617c1.413,-0.821 2.208,-2.3 2.208,-3.825c0,-0.746 -0.192,-1.504 -0.596,-2.2l-6.638,-11.5c-1.221,-2.108 -3.913,-2.829 -6.021,-1.613c-7.033,4.058 -13.508,9.029 -19.25,14.771c-1.721,1.721 -1.721,4.513 0,6.233l6.358,6.362c-2.675,2.988 -5.125,6.179 -7.321,9.533l-7.788,-4.496c-2.108,-1.217 -4.804,-0.492 -6.021,1.617c-1.221,2.108 -0.496,4.804 1.612,6.021l11.5,6.638c2.108,1.221 4.804,0.496 6.025,-1.612" style="fill:#bc3c85;fill-rule:nonzero;"/></svg>