<?xml version="1.0" encoding="UTF-8" standalone="no"?><!DOCTYPE svg PUBLIC "-//W3C//DTD SVG 1.1//EN" "http://www.w3.org/Graphics/SVG/1.1/DTD/svg11.dtd"><svg width="100%" height="100%" viewBox="0 0 312 318" version="1.1" xmlns="http://www.w3.org/2000/svg" xmlns:xlink="http://www.w3.org/1999/xlink" xml:space="preserve" xmlns:serif="http://www.serif.com/" style="fill-rule:evenodd;clip-rule:evenodd;stroke-linejoin:round;stroke-miterlimit:2;"><rect x="0" y="0" width="311.988" height="317.971" style="fill:#fc3309;"/><path d="M214.567,84.709l0,-20.767l-24.925,-8.146l0,28.913c0,6.012 -1.575,11.658 -4.337,16.542c-0.058,0.096 -0.117,0.188 -0.171,0.283c-0.054,0.092 -0.1,0.183 -0.154,0.271c-5.854,9.908 -16.642,16.554 -28.987,16.554c-12.342,0 -23.129,-6.646 -28.983,-16.55c-0.054,-0.092 -0.104,-0.183 -0.154,-0.275c-0.058,-0.096 -0.112,-0.192 -0.171,-0.283c-2.762,-4.883 -4.338,-10.529 -4.338,-16.542l0,-28.913l-24.925,8.146l0,20.767c0,10.671 2.854,20.675 7.842,29.287c5.142,8.888 12.554,16.3 21.442,21.446c8.617,4.988 18.621,7.842 29.288,7.842c10.671,0 20.675,-2.854 29.292,-7.842c8.887,-5.146 16.296,-12.558 21.442,-21.446c4.988,-8.612 7.842,-18.617 7.842,-29.287" style="fill:#b1d952;"/><path d="M155.994,118.358c12.342,0 23.133,-6.642 28.988,-16.55c0.05,-0.092 0.1,-0.183 0.154,-0.271c0.054,-0.1 0.112,-0.192 0.167,-0.283c2.762,-4.888 4.342,-10.529 4.342,-16.546l0,-47.854l-67.3,0l0,47.854c0,6.013 1.579,11.658 4.342,16.542c0.054,0.096 0.113,0.188 0.167,0.287c0.054,0.088 0.104,0.179 0.154,0.271c5.858,9.908 16.646,16.55 28.987,16.55" style="fill:#fdbeb9;"/><path d="M168.458,130.822c0,6.883 -5.579,12.463 -12.463,12.463c-6.883,0 -12.463,-5.579 -12.463,-12.463c0,-6.883 5.579,-12.463 12.463,-12.463c6.883,0 12.463,5.579 12.463,12.463" style="fill:#fd6050;"/><path d="M184.981,101.806c-3.225,5.921 -1.154,13.362 4.717,16.754c5.958,3.442 13.579,1.4 17.021,-4.562c3.442,-5.963 1.4,-13.583 -4.558,-17.025c-5.867,-3.387 -13.338,-1.462 -16.854,4.279c-0.108,0.188 -0.212,0.371 -0.325,0.554" style="fill:#fd6050;"/><path d="M97.421,84.709l0,-20.767l-63.558,20.767c0,67.121 54.375,122.133 122.133,122.133c68.146,0 122.129,-55.45 122.129,-122.133l-63.558,-20.767l0,20.767c0,32.183 -26.083,58.575 -58.571,58.575c-32.487,0 -58.575,-26.392 -58.575,-58.575" style="fill:#fd6050;"/><path d="M110.672,227.626c0,-14.575 -6.042,-27.742 -15.754,-37.129c-9.713,9.387 -15.754,22.554 -15.754,37.129c0,14.575 6.042,27.738 15.754,37.129c9.713,-9.392 15.754,-22.554 15.754,-37.129" style="fill:#fde0be;"/><path d="M155.994,206.863c-9.713,9.387 -15.754,22.554 -15.754,37.129c0,14.575 6.042,27.738 15.754,37.129c9.713,-9.392 15.754,-22.554 15.754,-37.129c0,-14.575 -6.042,-27.742 -15.754,-37.129" style="fill:#fde0be;"/><path d="M217.071,190.498c-9.713,9.387 -15.754,22.554 -15.754,37.129c0,14.575 6.042,27.737 15.754,37.125c9.713,-9.388 15.754,-22.55 15.754,-37.125c0,-14.575 -6.042,-27.742 -15.754,-37.129" style="fill:#fde0be;"/><path d="M134.661,110.732c-3.042,-2.496 -5.637,-5.517 -7.654,-8.921c-0.05,-0.096 -0.1,-0.188 -0.154,-0.275c-0.054,-0.096 -0.112,-0.192 -0.167,-0.287c-2.763,-4.883 -4.342,-10.529 -4.342,-16.538l0,-28.912l-24.925,8.146l0,20.767c0,10.667 2.854,20.671 7.846,29.288c5.142,8.888 12.554,16.3 21.442,21.446c3.054,1.767 6.288,3.267 9.658,4.467c-1.192,-7.733 -1.812,-15.654 -1.812,-23.721c0,-1.829 0.046,-3.646 0.108,-5.458" style="fill:#91b706;"/><path d="M156.454,36.854l-34.108,0l0,47.854c0,6.012 1.575,11.658 4.338,16.542c0.058,0.096 0.117,0.187 0.171,0.287c0.054,0.087 0.1,0.179 0.154,0.271c2.012,3.408 4.608,6.425 7.65,8.925c0.938,-26.95 8.771,-52.15 21.796,-73.879" style="fill:#fd7da0;"/><path d="M97.421,84.709l0,-20.767l-63.558,20.767c0,67.121 54.375,122.133 122.133,122.133c2.608,0 5.192,-0.092 7.758,-0.25c-13.979,-19.346 -23.592,-42.054 -27.388,-66.683c-22.754,-8.092 -38.946,-29.846 -38.946,-55.2" style="fill:#bc3c85;"/><path d="M122.291,118.558c5.871,-3.387 7.942,-10.833 4.717,-16.75c-0.108,-0.183 -0.217,-0.371 -0.325,-0.558c-3.517,-5.738 -10.987,-7.663 -16.854,-4.275c-5.958,3.442 -8,11.062 -4.558,17.021c3.442,5.963 11.063,8.004 17.021,4.562" style="fill:#bc3c85;"/><path d="M155.994,243.992l-15.029,8.675c1.879,11.088 7.288,20.967 15.029,28.45c7.742,-7.483 13.15,-17.363 15.029,-28.45l-15.029,-8.675Z" style="fill:#d46b5c;"/><path d="M94.917,227.626l-15.025,8.675c1.875,11.088 7.283,20.971 15.025,28.454c7.742,-7.483 13.15,-17.367 15.029,-28.454l-15.029,-8.675Z" style="fill:#d46b5c;"/><path d="M217.071,227.626l-15.029,8.675c1.879,11.088 7.288,20.971 15.029,28.454c7.742,-7.483 13.15,-17.367 15.025,-28.454l-15.025,-8.675Z" style="fill:#d46b5c;"/><path d="M155.994,208.716c-2.742,0 -4.967,-2.225 -4.967,-4.967l0,-57.35c0,-2.737 2.225,-4.963 4.967,-4.963c2.742,0 4.967,2.225 4.967,4.963l0,57.35c0,2.742 -2.225,4.967 -4.967,4.967" style="fill:#fdcb50;fill-rule:nonzero;"/><path d="M96.469,192.77c-0.842,0 -1.696,-0.217 -2.475,-0.667c-2.379,-1.371 -3.192,-4.408 -1.821,-6.783l28.679,-49.667c1.367,-2.371 4.404,-3.188 6.779,-1.817c2.375,1.371 3.187,4.408 1.817,6.783l-28.675,49.667c-0.921,1.592 -2.587,2.483 -4.304,2.483" style="fill:#fdcb50;fill-rule:nonzero;"/><path d="M52.906,149.197c-1.717,0 -3.383,-0.892 -4.304,-2.483c-1.371,-2.375 -0.558,-5.412 1.817,-6.783l49.667,-28.671c2.375,-1.375 5.412,-0.558 6.779,1.812c1.375,2.379 0.562,5.412 -1.812,6.783l-49.671,28.675c-0.779,0.45 -1.633,0.667 -2.475,0.667" style="fill:#fdcb50;fill-rule:nonzero;"/><path d="M215.52,192.77c-1.713,0 -3.383,-0.892 -4.304,-2.483l-28.675,-49.667c-1.371,-2.375 -0.554,-5.412 1.817,-6.783c2.375,-1.371 5.412,-0.558 6.783,1.817l28.675,49.667c1.371,2.375 0.558,5.412 -1.821,6.783c-0.779,0.45 -1.633,0.667 -2.475,0.667" style="fill:#fdcb50;fill-rule:nonzero;"/><path d="M259.082,149.197c-0.842,0 -1.696,-0.217 -2.475,-0.667l-49.671,-28.675c-2.375,-1.371 -3.188,-4.404 -1.812,-6.783c1.367,-2.371 4.404,-3.183 6.779,-1.813l49.667,28.671c2.375,1.371 3.188,4.408 1.817,6.783c-0.921,1.592 -2.588,2.483 -4.304,2.483" style="fill:#fdcb50;fill-rule:nonzero;"/><path d="M132.608,176.963c-0.425,0 -0.854,-0.054 -1.283,-0.167c-2.646,-0.708 -4.225,-3.429 -3.517,-6.079c0.704,-2.65 3.421,-4.225 6.071,-3.517l0.008,0c2.646,0.708 4.221,3.425 3.517,6.079c-0.592,2.217 -2.6,3.683 -4.796,3.683" style="fill:#fff;fill-rule:nonzero;"/><path d="M92.097,153.574c-1.35,0 -2.696,-0.55 -3.675,-1.625c-1.842,-2.029 -1.696,-5.171 0.333,-7.012c2.029,-1.846 5.167,-1.696 7.013,0.329l0,0.004c1.846,2.029 1.696,5.167 -0.333,7.012c-0.95,0.867 -2.146,1.292 -3.338,1.292" style="fill:#fff;fill-rule:nonzero;"/><path d="M179.38,176.963c-2.162,0 -4.15,-1.421 -4.775,-3.6c-0.75,-2.637 0.775,-5.383 3.408,-6.137l0.008,0c2.633,-0.754 5.383,0.771 6.133,3.408c0.754,2.638 -0.771,5.383 -3.408,6.138c-0.458,0.129 -0.917,0.192 -1.367,0.192" style="fill:#fff;fill-rule:nonzero;"/><path d="M219.892,153.574c-1.35,0 -2.696,-0.55 -3.675,-1.625c-1.842,-2.029 -1.696,-5.167 0.333,-7.012l0.004,0c2.025,-1.846 5.167,-1.696 7.013,0.333c1.842,2.029 1.696,5.167 -0.333,7.012c-0.95,0.867 -2.15,1.292 -3.342,1.292" style="fill:#fff;fill-rule:nonzero;"/></svg>