<?xml version="1.0" encoding="UTF-8" standalone="no"?><!DOCTYPE svg PUBLIC "-//W3C//DTD SVG 1.1//EN" "http://www.w3.org/Graphics/SVG/1.1/DTD/svg11.dtd"><svg width="100%" height="100%" viewBox="0 0 381 381" version="1.1" xmlns="http://www.w3.org/2000/svg" xmlns:xlink="http://www.w3.org/1999/xlink" xml:space="preserve" xmlns:serif="http://www.serif.com/" style="fill-rule:evenodd;clip-rule:evenodd;stroke-linejoin:round;stroke-miterlimit:2;"><rect x="0" y="0" width="380.337" height="380.337" style="fill:#01f0ff;"/><path d="M192.941,118.741c0,-21.008 -17.192,-38.2 -38.2,-38.2c-21.008,0 -38.2,17.192 -38.2,38.2c0,-21.008 -17.192,-38.2 -38.2,-38.2l-12.863,0c-10.504,0 -19.1,8.6 -19.1,19.1l0,24.167c0,10.504 8.596,19.1 19.1,19.1l12.863,0l0,114.792c0,21.008 17.188,38.2 38.2,38.2c21.008,0 38.2,-17.192 38.2,-38.2c0,21.008 17.188,38.2 38.2,38.2c21.012,0 38.2,-17.192 38.2,-38.2c0,21.008 17.192,38.2 38.2,38.2c21.012,0 38.2,-17.192 38.2,-38.2l0,-114.792l12.863,0c10.504,0 19.1,-8.592 19.1,-19.1l0,-24.167c0,-10.504 -8.596,-19.1 -19.1,-19.1l-12.863,0c-21.008,0 -38.2,17.192 -38.2,38.2c0,-21.008 -17.192,-38.2 -38.2,-38.2c-21.008,0 -38.2,17.192 -38.2,38.2" style="fill:#67ccd1;"/><path d="M192.941,233.021c-41.95,0 -81.175,-11.667 -114.6,-31.938l0,56.621c0,21.004 17.188,38.196 38.2,38.196c21.008,0 38.2,-17.192 38.2,-38.196c0,21.004 17.188,38.196 38.2,38.196c21.012,0 38.2,-17.192 38.2,-38.196c0,21.004 17.192,38.196 38.2,38.196c21.012,0 38.2,-17.192 38.2,-38.2l0,-56.617c-33.429,20.271 -72.65,31.938 -114.6,31.938" style="fill:#27a2cc;"/><path d="M127.011,227.944l-20.938,0c-3.292,0 -5.958,-2.667 -5.958,-5.958c0,-3.288 2.667,-5.958 5.958,-5.958l20.938,0c3.287,0 5.958,2.671 5.958,5.958c0,3.292 -2.671,5.958 -5.958,5.958" style="fill:#fff;fill-rule:nonzero;"/><path d="M127.011,192.231l-20.938,0c-3.292,0 -5.958,-2.667 -5.958,-5.958c0,-3.288 2.667,-5.958 5.958,-5.958l20.938,0c3.287,0 5.958,2.671 5.958,5.958c0,3.292 -2.671,5.958 -5.958,5.958" style="fill:#fff;fill-rule:nonzero;"/><path d="M127.011,156.518l-20.938,0c-3.292,0 -5.958,-2.671 -5.958,-5.958c0,-3.292 2.667,-5.958 5.958,-5.958l20.938,0c3.287,0 5.958,2.667 5.958,5.958c0,3.287 -2.671,5.958 -5.958,5.958" style="fill:#fff;fill-rule:nonzero;"/><path d="M203.411,227.944l-20.942,0c-3.287,0 -5.954,-2.667 -5.954,-5.958c0,-3.288 2.667,-5.958 5.954,-5.958l20.942,0c3.287,0 5.958,2.671 5.958,5.958c0,3.292 -2.671,5.958 -5.958,5.958" style="fill:#fff;fill-rule:nonzero;"/><path d="M203.411,192.231l-20.942,0c-3.287,0 -5.954,-2.667 -5.954,-5.958c0,-3.288 2.667,-5.958 5.954,-5.958l20.942,0c3.287,0 5.958,2.671 5.958,5.958c0,3.292 -2.671,5.958 -5.958,5.958" style="fill:#fff;fill-rule:nonzero;"/><path d="M203.411,156.518l-20.942,0c-3.287,0 -5.954,-2.671 -5.954,-5.958c0,-3.292 2.667,-5.958 5.954,-5.958l20.942,0c3.287,0 5.958,2.667 5.958,5.958c0,3.287 -2.671,5.958 -5.958,5.958" style="fill:#fff;fill-rule:nonzero;"/><path d="M279.81,227.944l-20.938,0c-3.292,0 -5.958,-2.667 -5.958,-5.958c0,-3.288 2.667,-5.958 5.958,-5.958l20.938,0c3.288,0 5.958,2.671 5.958,5.958c0,3.292 -2.671,5.958 -5.958,5.958" style="fill:#fff;fill-rule:nonzero;"/><path d="M279.81,192.231l-20.938,0c-3.292,0 -5.958,-2.667 -5.958,-5.958c0,-3.288 2.667,-5.958 5.958,-5.958l20.938,0c3.288,0 5.958,2.671 5.958,5.958c0,3.292 -2.671,5.958 -5.958,5.958" style="fill:#fff;fill-rule:nonzero;"/><path d="M279.81,156.518l-20.938,0c-3.292,0 -5.958,-2.671 -5.958,-5.958c0,-3.292 2.667,-5.958 5.958,-5.958l20.938,0c3.288,0 5.958,2.667 5.958,5.958c0,3.287 -2.671,5.958 -5.958,5.958" style="fill:#fff;fill-rule:nonzero;"/></svg>