<?xml version="1.0" encoding="UTF-8" standalone="no"?><!DOCTYPE svg PUBLIC "-//W3C//DTD SVG 1.1//EN" "http://www.w3.org/Graphics/SVG/1.1/DTD/svg11.dtd"><svg width="100%" height="100%" viewBox="0 0 518 381" version="1.1" xmlns="http://www.w3.org/2000/svg" xmlns:xlink="http://www.w3.org/1999/xlink" xml:space="preserve" xmlns:serif="http://www.serif.com/" style="fill-rule:evenodd;clip-rule:evenodd;stroke-linejoin:round;stroke-miterlimit:2;"><rect x="0" y="0" width="517.263" height="380.337" style="fill:#f9a200;"/><path d="M285.418,82.55l-16.462,-16.463c-5.713,-5.675 -15.029,-5.662 -20.725,0.038c-5.708,5.708 -5.708,15.05 0,20.762l16.425,16.425c5.712,5.708 15.054,5.708 20.762,0c5.708,-5.708 5.712,-15.05 0,-20.763" style="fill:#fdbeb9;"/><path d="M108.419,246.635l71.008,71.004l67.592,-67.596c15.383,-0.467 30.621,-6.533 42.292,-18.208l62.179,-62.179c5.713,-5.713 5.713,-15.054 0,-20.762c-5.708,-5.713 -15.05,-5.713 -20.758,0l6.229,-6.229c5.708,-5.708 5.708,-15.054 0,-20.762c-5.712,-5.708 -15.05,-5.708 -20.762,0l2.075,-2.075c5.708,-5.708 5.708,-15.054 0,-20.762c-5.704,-5.708 -15.042,-5.708 -20.754,-0.008l4.146,-4.142c5.713,-5.708 5.713,-15.054 0,-20.763c-5.708,-5.708 -15.05,-5.708 -20.758,0c-57.5,57.492 -114.992,114.987 -172.488,172.483m189.1,-147.579l-0.008,0.008c0.004,0 0.008,-0.004 0.008,-0.008" style="fill:#d46b5c;"/><path d="M341.245,179.903l-51.933,51.933c-6.821,6.821 -14.854,11.721 -23.425,14.721l71.95,71.942l71.004,-71.004l-67.596,-67.592Z" style="fill:#fdbeb9;"/><path d="M202.37,165.597l-16.425,-16.429l-0.037,-0.033c-5.708,-5.671 -15.025,-5.662 -20.725,0.038c-5.708,5.708 -5.708,15.05 0,20.762l16.425,16.425c5.712,5.708 15.054,5.708 20.767,0c5.704,-5.708 5.708,-15.05 -0.004,-20.763" style="fill:#fdbeb9;"/><path d="M185.945,149.169l16.429,16.433c5.708,5.704 15.05,5.704 20.758,-0.004c5.708,-5.708 5.713,-15.054 0.004,-20.763l-22.658,-22.654c-5.708,-5.708 -15.05,-5.708 -20.762,0c-5.708,5.713 -5.708,15.05 0,20.763l6.196,6.192c0.008,0.012 0.021,0.021 0.033,0.033" style="fill:#fdbeb9;"/><path d="M198.403,120.105l29.067,29.067c5.708,5.708 15.05,5.708 20.762,0c5.708,-5.713 5.708,-15.054 0,-20.763l-29.071,-29.071c-5.708,-5.704 -15.05,-5.704 -20.758,0.004c-5.708,5.708 -5.708,15.054 0,20.763Z" style="fill:#fdbeb9;"/><path d="M215.013,95.19l28.883,28.883c5.708,5.708 15.054,5.708 20.762,0c5.708,-5.708 5.708,-15.054 0,-20.763l-28.883,-28.883c-5.708,-5.708 -15.054,-5.708 -20.763,0c-5.708,5.708 -5.708,15.054 0,20.763Z" style="fill:#fdbeb9;"/><path d="M231.69,265.372c-36.996,-5.25 -70.567,-21.154 -97.504,-44.504c-8.587,8.588 -17.175,17.175 -25.767,25.767l71.004,71.004l52.267,-52.267Z" style="fill:#b55348;"/><path d="M284.813,265.478l53.021,53.025l71.008,-71.008l-26.233,-26.229c-27.042,23.292 -60.708,39.1 -97.796,44.213" style="fill:#fd7da0;"/></svg>