<?xml version="1.0" encoding="UTF-8" standalone="no"?><!DOCTYPE svg PUBLIC "-//W3C//DTD SVG 1.1//EN" "http://www.w3.org/Graphics/SVG/1.1/DTD/svg11.dtd"><svg width="100%" height="100%" viewBox="0 0 518 381" version="1.1" xmlns="http://www.w3.org/2000/svg" xmlns:xlink="http://www.w3.org/1999/xlink" xml:space="preserve" xmlns:serif="http://www.serif.com/" style="fill-rule:evenodd;clip-rule:evenodd;stroke-linejoin:round;stroke-miterlimit:2;"><rect x="0" y="0" width="517.262" height="380.337" style="fill:#fc8afc;"/><path d="M330.037,99.621l0,-25.317l-30.383,-9.929l0,35.246c0,7.333 -1.925,14.208 -5.292,20.167c-0.067,0.117 -0.137,0.229 -0.204,0.346c-0.067,0.108 -0.125,0.221 -0.188,0.329c-7.137,12.079 -20.292,20.179 -35.338,20.179c-15.046,0 -28.196,-8.1 -35.337,-20.175c-0.062,-0.112 -0.121,-0.225 -0.188,-0.333c-0.067,-0.117 -0.137,-0.233 -0.208,-0.346c-3.367,-5.958 -5.287,-12.833 -5.287,-20.167l0,-35.246l-30.383,9.929l0,25.317c0,13.004 3.479,25.2 9.558,35.704c6.271,10.838 15.304,19.871 26.137,26.146c10.504,6.075 22.7,9.554 35.708,9.554c13.004,0 25.2,-3.479 35.704,-9.554c10.833,-6.275 19.871,-15.308 26.142,-26.146c6.079,-10.504 9.558,-22.7 9.558,-35.704" style="fill:#b1d952;"/><path d="M258.632,140.642c15.046,0 28.2,-8.1 35.337,-20.179c0.062,-0.108 0.121,-0.221 0.188,-0.329c0.067,-0.117 0.138,-0.229 0.204,-0.346c3.367,-5.958 5.292,-12.833 5.292,-20.167l0,-58.338l-82.042,0l0,58.338c0,7.329 1.925,14.208 5.292,20.167c0.067,0.112 0.138,0.229 0.204,0.346c0.067,0.108 0.125,0.221 0.188,0.333c7.142,12.075 20.292,20.175 35.338,20.175" style="fill:#fdbeb9;"/><path d="M273.826,155.836c0,8.392 -6.804,15.192 -15.192,15.192c-8.392,0 -15.196,-6.8 -15.196,-15.192c0,-8.392 6.804,-15.192 15.196,-15.192c8.387,0 15.192,6.8 15.192,15.192" style="fill:#fd6050;"/><path d="M293.97,120.464c-3.929,7.217 -1.408,16.292 5.75,20.425c7.267,4.196 16.554,1.704 20.75,-5.562c4.196,-7.271 1.708,-16.558 -5.558,-20.754c-7.15,-4.129 -16.258,-1.783 -20.546,5.217c-0.129,0.225 -0.258,0.45 -0.396,0.675" style="fill:#fd6050;"/><path d="M187.227,99.621l0,-25.317l-77.483,25.317c0,81.825 66.292,148.888 148.888,148.888c83.075,0 148.887,-67.596 148.887,-148.888l-77.483,-25.317l0,25.317c0,39.233 -31.8,71.404 -71.404,71.404c-39.6,0 -71.404,-32.171 -71.404,-71.404" style="fill:#fd6050;"/><path d="M203.382,273.847c0,-17.771 -7.367,-33.817 -19.208,-45.263c-11.838,11.446 -19.2,27.492 -19.2,45.263c0,17.771 7.362,33.817 19.2,45.258c11.842,-11.442 19.208,-27.488 19.208,-45.258" style="fill:#fde0be;"/><path d="M258.632,248.535c-11.842,11.446 -19.208,27.496 -19.208,45.263c0,17.767 7.367,33.817 19.208,45.262c11.842,-11.446 19.204,-27.496 19.204,-45.262c0,-17.767 -7.363,-33.817 -19.204,-45.263" style="fill:#fde0be;"/><path d="M333.09,228.584c-11.842,11.446 -19.208,27.496 -19.208,45.263c0,17.767 7.367,33.817 19.208,45.262c11.842,-11.446 19.204,-27.496 19.204,-45.262c0,-17.767 -7.363,-33.817 -19.204,-45.263" style="fill:#fde0be;"/><path d="M232.626,131.345c-3.708,-3.046 -6.875,-6.725 -9.329,-10.879c-0.062,-0.112 -0.125,-0.221 -0.188,-0.333c-0.067,-0.117 -0.137,-0.233 -0.208,-0.346c-3.367,-5.954 -5.287,-12.837 -5.287,-20.167l0,-35.246l-30.388,9.929l0,25.317c0,13.008 3.483,25.204 9.562,35.708c6.271,10.833 15.304,19.867 26.138,26.142c3.725,2.154 7.667,3.983 11.779,5.446c-1.454,-9.429 -2.213,-19.083 -2.213,-28.921c0,-2.225 0.054,-4.438 0.133,-6.65" style="fill:#91b706;"/><path d="M259.193,41.283l-41.579,0l0,58.338c0,7.329 1.921,14.212 5.288,20.167c0.071,0.112 0.137,0.229 0.204,0.346c0.067,0.112 0.125,0.221 0.192,0.333c2.45,4.154 5.621,7.833 9.325,10.879c1.146,-32.854 10.692,-63.571 26.571,-90.063" style="fill:#fd7da0;"/><path d="M187.227,99.621l0,-25.317l-77.483,25.317c0,81.825 66.292,148.888 148.888,148.888c3.179,0 6.333,-0.108 9.462,-0.304c-17.042,-23.583 -28.758,-51.267 -33.392,-81.287c-27.737,-9.867 -47.475,-36.388 -47.475,-67.296" style="fill:#bc3c85;"/><path d="M217.546,140.885c7.154,-4.129 9.679,-13.204 5.75,-20.417c-0.133,-0.229 -0.267,-0.454 -0.396,-0.683c-4.287,-6.996 -13.396,-9.342 -20.546,-5.213c-7.267,4.196 -9.754,13.488 -5.558,20.75c4.196,7.271 13.483,9.758 20.75,5.562" style="fill:#bc3c85;"/><path d="M258.632,293.798l-18.321,10.575c2.287,13.517 8.883,25.562 18.321,34.688c9.438,-9.125 16.033,-21.171 18.321,-34.688l-18.321,-10.575Z" style="fill:#d46b5c;"/><path d="M184.176,273.847l-18.317,10.575c2.283,13.517 8.879,25.562 18.317,34.683c9.438,-9.121 16.033,-21.167 18.321,-34.683l-18.321,-10.575Z" style="fill:#d46b5c;"/><path d="M333.09,273.847l-18.321,10.575c2.287,13.517 8.883,25.562 18.321,34.683c9.438,-9.121 16.033,-21.167 18.317,-34.683l-18.317,-10.575Z" style="fill:#d46b5c;"/><path d="M258.632,250.795c-3.342,0 -6.054,-2.712 -6.054,-6.054l0,-69.912c0,-3.342 2.713,-6.054 6.054,-6.054c3.342,0 6.054,2.712 6.054,6.054l0,69.912c0,3.342 -2.713,6.054 -6.054,6.054" style="fill:#fdcb50;fill-rule:nonzero;"/><path d="M186.067,231.355c-1.029,0 -2.067,-0.262 -3.021,-0.812c-2.896,-1.671 -3.883,-5.371 -2.217,-8.271l34.958,-60.542c1.671,-2.896 5.375,-3.887 8.267,-2.217c2.896,1.671 3.887,5.371 2.217,8.267l-34.958,60.546c-1.121,1.942 -3.154,3.029 -5.246,3.029" style="fill:#fdcb50;fill-rule:nonzero;"/><path d="M132.961,178.236c-2.092,0 -4.125,-1.083 -5.25,-3.025c-1.671,-2.896 -0.675,-6.6 2.217,-8.271l60.55,-34.954c2.892,-1.675 6.596,-0.679 8.262,2.212c1.675,2.896 0.683,6.596 -2.213,8.271l-60.546,34.954c-0.954,0.55 -1.992,0.812 -3.021,0.812" style="fill:#fdcb50;fill-rule:nonzero;"/><path d="M331.198,231.355c-2.092,0 -4.125,-1.087 -5.246,-3.029l-34.958,-60.546c-1.671,-2.896 -0.679,-6.596 2.217,-8.267c2.892,-1.671 6.596,-0.683 8.267,2.217l34.958,60.542c1.671,2.9 0.679,6.6 -2.217,8.271c-0.954,0.55 -1.992,0.812 -3.021,0.812" style="fill:#fdcb50;fill-rule:nonzero;"/><path d="M384.304,178.236c-1.029,0 -2.067,-0.263 -3.021,-0.808l-60.546,-34.958c-2.896,-1.671 -3.887,-5.375 -2.213,-8.271c1.667,-2.892 5.371,-3.883 8.263,-2.213l60.55,34.954c2.892,1.671 3.887,5.375 2.217,8.271c-1.125,1.942 -3.158,3.025 -5.25,3.025" style="fill:#fdcb50;fill-rule:nonzero;"/><path d="M230.124,212.085c-0.517,0 -1.042,-0.067 -1.562,-0.204c-3.229,-0.863 -5.15,-4.175 -4.292,-7.408c0.862,-3.229 4.175,-5.154 7.404,-4.292l0.008,0.004c3.225,0.862 5.146,4.175 4.287,7.408c-0.725,2.704 -3.171,4.492 -5.846,4.492" style="fill:#fff;fill-rule:nonzero;"/><path d="M180.737,183.573c-1.646,0 -3.283,-0.667 -4.479,-1.983c-2.246,-2.471 -2.067,-6.3 0.408,-8.55c2.471,-2.246 6.296,-2.067 8.546,0.404l0,0.004c2.254,2.475 2.071,6.3 -0.404,8.55c-1.162,1.054 -2.617,1.575 -4.071,1.575" style="fill:#fff;fill-rule:nonzero;"/><path d="M287.142,212.085c-2.637,0 -5.058,-1.729 -5.821,-4.387c-0.917,-3.217 0.946,-6.562 4.158,-7.483l0.004,0c3.213,-0.921 6.562,0.942 7.479,4.158c0.921,3.212 -0.942,6.562 -4.154,7.479c-0.558,0.158 -1.117,0.233 -1.667,0.233" style="fill:#fff;fill-rule:nonzero;"/><path d="M336.528,183.573c-1.646,0 -3.283,-0.667 -4.479,-1.979c-2.246,-2.475 -2.067,-6.304 0.408,-8.55l0,-0.004c2.475,-2.246 6.304,-2.062 8.55,0.408c2.25,2.475 2.067,6.3 -0.408,8.55c-1.158,1.054 -2.617,1.575 -4.071,1.575" style="fill:#fff;fill-rule:nonzero;"/></svg>