<?xml version="1.0" encoding="UTF-8" standalone="no"?><!DOCTYPE svg PUBLIC "-//W3C//DTD SVG 1.1//EN" "http://www.w3.org/Graphics/SVG/1.1/DTD/svg11.dtd"><svg width="100%" height="100%" viewBox="0 0 381 381" version="1.1" xmlns="http://www.w3.org/2000/svg" xmlns:xlink="http://www.w3.org/1999/xlink" xml:space="preserve" xmlns:serif="http://www.serif.com/" style="fill-rule:evenodd;clip-rule:evenodd;stroke-linejoin:round;stroke-miterlimit:2;"><rect x="0" y="0" width="380.337" height="380.337" style="fill:#4b17f7;"/><path d="M54.715,73.524l18.808,-18.808l10.433,7.987c5.862,4.488 14.375,5.592 21.496,-1.529l220.171,230.762l-33.692,33.688l-230.758,-220.171c7.121,-7.121 6.017,-15.629 1.529,-21.496l-7.987,-10.433Z" style="fill:#d46b5c;"/><path d="M101.876,144.291l42.412,-42.412l-38.837,-40.704c-7.121,7.121 -15.633,6.017 -21.496,1.529l-10.433,-7.987l-18.808,18.808l7.988,10.433c4.488,5.867 5.592,14.375 -1.529,21.496l40.704,38.837Z" style="fill:#f7b073;"/><path d="M257.791,258.164l-0.004,0.004c-2.046,2.246 -1.875,5.729 0.371,7.775c2.254,2.046 5.738,1.879 7.779,-0.371c0.958,-1.054 1.433,-2.379 1.433,-3.704c0,-1.496 -0.604,-2.988 -1.8,-4.075c-2.254,-2.046 -5.733,-1.879 -7.779,0.371" style="fill:#5b130b;fill-rule:nonzero;"/><path d="M234.513,234.521c-2.15,2.15 -2.15,5.637 0,7.787c2.15,2.146 5.637,2.146 7.787,-0.004c1.079,-1.075 1.617,-2.483 1.617,-3.892c0,-1.413 -0.537,-2.821 -1.617,-3.896c-2.15,-2.15 -5.633,-2.15 -7.783,0l-0.004,0.004Z" style="fill:#5b130b;fill-rule:nonzero;"/><path d="M211.057,211.065c-2.15,2.15 -2.15,5.637 0,7.787c2.15,2.146 5.637,2.146 7.787,-0.004c1.075,-1.075 1.613,-2.483 1.613,-3.896c0,-1.408 -0.537,-2.817 -1.613,-3.892c-2.15,-2.15 -5.637,-2.15 -7.787,0l0,0.004Z" style="fill:#5b130b;fill-rule:nonzero;"/><path d="M187.601,187.61c-2.15,2.15 -2.15,5.633 0,7.783c2.15,2.15 5.637,2.146 7.787,0c1.075,-1.075 1.613,-2.483 1.613,-3.896c0,-1.408 -0.537,-2.817 -1.613,-3.892c-2.15,-2.15 -5.637,-2.15 -7.787,0l0,0.004Z" style="fill:#5b130b;fill-rule:nonzero;"/><path d="M163.982,164.323l-0.004,0.004c-2.054,2.242 -1.9,5.725 0.342,7.775c2.242,2.054 5.725,1.9 7.779,-0.342c0.967,-1.054 1.446,-2.387 1.446,-3.717c0,-1.487 -0.6,-2.975 -1.783,-4.058c-2.242,-2.058 -5.725,-1.904 -7.779,0.338" style="fill:#5b130b;fill-rule:nonzero;"/><path d="M140.353,141.061l0,0.004c-1.95,2.333 -1.629,5.808 0.704,7.754c2.337,1.942 5.808,1.629 7.758,-0.708c0.854,-1.029 1.275,-2.279 1.275,-3.521c0,-1.579 -0.675,-3.146 -1.983,-4.233c-2.333,-1.95 -5.808,-1.633 -7.754,0.704" style="fill:#5b130b;fill-rule:nonzero;"/><path d="M93.774,101.568l3.912,3.908c2.146,2.15 5.633,2.15 7.788,0c1.075,-1.075 1.608,-2.483 1.608,-3.892c0,-1.408 -0.533,-2.817 -1.608,-3.892l-3.913,-3.912c-2.15,-2.15 -5.637,-2.15 -7.787,0c-2.15,2.15 -2.15,5.638 0,7.787" style="fill:#5b130b;fill-rule:nonzero;"/></svg>