<?xml version="1.0" encoding="UTF-8" standalone="no"?><!DOCTYPE svg PUBLIC "-//W3C//DTD SVG 1.1//EN" "http://www.w3.org/Graphics/SVG/1.1/DTD/svg11.dtd"><svg width="100%" height="100%" viewBox="0 0 761 381" version="1.1" xmlns="http://www.w3.org/2000/svg" xmlns:xlink="http://www.w3.org/1999/xlink" xml:space="preserve" xmlns:serif="http://www.serif.com/" style="fill-rule:evenodd;clip-rule:evenodd;stroke-linejoin:round;stroke-miterlimit:2;"><rect x="0" y="0" width="760.671" height="380.337"/><rect x="406.108" y="256.704" width="286.783" height="38.812" style="fill:#fde0be;"/><rect x="429.519" y="217.894" width="239.963" height="38.812" style="fill:#fde0be;"/><rect x="452.932" y="179.081" width="193.138" height="38.812" style="fill:#fde0be;"/><rect x="476.341" y="140.27" width="146.317" height="38.812" style="fill:#fde0be;"/><rect x="505.604" y="84.823" width="87.792" height="55.446" style="fill:#fde0be;"/><rect x="536.329" y="112.7" width="26.342" height="27.571" style="fill:#fd8f01;"/><path d="M406.109,295.519l210.371,0c-16.679,-10.583 -31.396,-23.717 -43.542,-38.812l-166.829,0l0,38.812Z" style="fill:#f7b073;"/><path d="M429.519,256.705l143.417,0c-9.517,-11.829 -17.45,-24.858 -23.504,-38.812l-119.913,0l0,38.812Z" style="fill:#f7b073;"/><path d="M452.932,217.894l96.5,0c-5.329,-12.287 -9.208,-25.292 -11.417,-38.812l-85.083,0l0,38.812Z" style="fill:#f7b073;"/><path d="M476.341,179.081l61.675,0c-1.408,-8.629 -2.146,-17.471 -2.146,-26.475c0,-4.15 0.167,-8.262 0.471,-12.338l-60,0l0,38.812Z" style="fill:#f7b073;"/><path d="M606.577,295.519l-43.908,-155.25l-26.337,-0l-43.908,155.25l114.154,0Z" style="fill:#fdcb50;"/><path d="M606.577,295.519l-2.417,-8.554c-41.617,-31.496 -68.288,-79.971 -68.288,-134.358c0,-4.154 0.163,-8.262 0.471,-12.338l-0.013,0l-43.908,155.25l114.154,0Z" style="fill:#fd8f01;"/><rect x="67.783" y="256.704" width="286.783" height="38.812" style="fill:#fde0be;"/><rect x="91.193" y="217.894" width="239.963" height="38.812" style="fill:#fde0be;"/><rect x="114.605" y="179.081" width="193.137" height="38.812" style="fill:#fde0be;"/><rect x="138.015" y="140.27" width="146.317" height="38.812" style="fill:#fde0be;"/><rect x="167.279" y="84.821" width="87.792" height="55.446" style="fill:#fde0be;"/><rect x="198.004" y="112.7" width="26.338" height="27.571" style="fill:#fd8f01;"/><path d="M67.783,295.519l210.371,0c-16.679,-10.583 -31.396,-23.717 -43.542,-38.812l-166.829,0l0,38.812Z" style="fill:#f7b073;"/><path d="M91.193,256.705l143.417,0c-9.517,-11.829 -17.45,-24.858 -23.504,-38.812l-119.913,0l0,38.812Z" style="fill:#f7b073;"/><path d="M114.605,217.894l96.5,0c-5.329,-12.287 -9.208,-25.292 -11.417,-38.812l-85.083,0l0,38.812Z" style="fill:#f7b073;"/><path d="M138.015,179.081l61.675,0c-1.408,-8.629 -2.146,-17.471 -2.146,-26.475c0,-4.15 0.167,-8.262 0.471,-12.338l-60,0l0,38.812Z" style="fill:#f7b073;"/><path d="M268.251,295.519l-43.908,-155.25l-26.338,-0l-43.908,155.25l114.154,0Z" style="fill:#fdcb50;"/><path d="M268.251,295.519l-2.417,-8.554c-41.617,-31.496 -68.287,-79.971 -68.287,-134.358c0,-4.154 0.162,-8.262 0.471,-12.338l-0.012,0l-43.908,155.25l114.154,0Z" style="fill:#fd8f01;"/></svg>