<?xml version="1.0" encoding="UTF-8" standalone="no"?><!DOCTYPE svg PUBLIC "-//W3C//DTD SVG 1.1//EN" "http://www.w3.org/Graphics/SVG/1.1/DTD/svg11.dtd"><svg width="100%" height="100%" viewBox="0 0 375 381" version="1.1" xmlns="http://www.w3.org/2000/svg" xmlns:xlink="http://www.w3.org/1999/xlink" xml:space="preserve" xmlns:serif="http://www.serif.com/" style="fill-rule:evenodd;clip-rule:evenodd;stroke-linejoin:round;stroke-miterlimit:2;"><rect x="0" y="0" width="374.117" height="380.337" style="fill:#fc8afc;"/><path d="M285.325,87.619c56.642,56.638 56.642,148.467 0,205.1c-56.637,56.637 -148.463,56.637 -205.1,-0c-56.637,-56.633 -56.637,-148.463 0,-205.1c56.638,-56.638 148.463,-56.638 205.1,0" style="fill:#ff950b;"/><path d="M182.808,45.118c6.067,0 12.05,0.379 17.925,1.104c-26.492,36.217 -42.142,80.867 -42.142,129.171c0,60.242 24.317,114.796 63.667,154.396c-12.546,3.537 -25.775,5.433 -39.45,5.433c-80.113,0 -145.05,-64.942 -145.05,-145.05c0,-80.112 64.938,-145.054 145.05,-145.054" style="fill:#ef7d00;"/><path d="M130.454,137.85c-28.896,28.896 -28.896,75.746 0,104.642c28.896,28.9 75.746,28.9 104.646,0c28.892,-28.896 28.892,-75.746 0,-104.642c-14.45,-14.45 -33.387,-21.675 -52.325,-21.675c-18.938,0 -37.875,7.225 -52.321,21.675Z" style="fill:url(#_Linear1);fill-rule:nonzero;"/><path d="M170.911,174.674c0,9.242 7.562,16.8 16.8,16.8l24.783,0c6.371,0.004 11.583,5.217 11.583,11.588c0,6.367 5.212,11.579 11.579,11.579l17.012,0c2.688,-7.658 4.146,-15.896 4.146,-24.471c0,-20.721 -8.517,-39.454 -22.242,-52.888l-26.271,0c-5.663,0 -10.296,4.633 -10.296,10.296c0,5.658 -4.633,10.296 -10.296,10.296c-9.238,0 -16.8,7.558 -16.8,16.8" style="fill:#b1d952;"/><path d="M108.8,190.171c0,39.004 30.175,70.958 68.45,73.796c-11.992,-27.083 -18.662,-57.046 -18.662,-88.571c0,-19.85 2.658,-39.071 7.608,-57.358c-32.875,7.542 -57.396,36.971 -57.396,72.133Z" style="fill:url(#_Linear2);fill-rule:nonzero;"/><path d="M143.115,204.258l-32.975,0c2.225,11.542 7.129,22.125 14.042,31.083l18.938,0c8.546,0 15.537,-6.996 15.537,-15.546c0,-8.546 -6.992,-15.537 -15.542,-15.537" style="fill:#91b706;"/><path d="M208.863,98.85c-0.508,0 -1.021,-0.062 -1.533,-0.204c-3.146,-0.838 -5.012,-4.075 -4.167,-7.217l3.029,-11.313c-5.758,-1.225 -11.608,-1.996 -17.488,-2.304l0,11.708c0,3.258 -2.638,5.9 -5.896,5.9c-8.279,0 -16.529,1.083 -24.521,3.225c-3.15,0.842 -6.379,-1.021 -7.225,-4.171l-4.596,-17.154c-0.842,-3.146 1.025,-6.379 4.171,-7.221c3.142,-0.842 6.375,1.025 7.221,4.171l3.113,11.617c5.254,-1.1 10.583,-1.8 15.942,-2.096l0,-12.029c0,-3.258 2.637,-5.896 5.896,-5.896c10.858,0 21.683,1.425 32.171,4.233c3.15,0.842 5.012,4.075 4.171,7.221l-4.596,17.158c-0.708,2.633 -3.092,4.371 -5.692,4.371" style="fill:#f01f46;fill-rule:nonzero;"/><path d="M95.646,145.742c-1.025,0 -2.046,-0.267 -2.95,-0.788l-15.383,-8.883c-2.817,-1.629 -3.783,-5.233 -2.158,-8.054c1.633,-2.821 5.238,-3.783 8.058,-2.158l10.417,6.017c2.933,-4.492 6.208,-8.758 9.787,-12.758l-8.504,-8.504c-1.108,-1.108 -1.725,-2.604 -1.725,-4.167c0,-1.567 0.617,-3.067 1.725,-4.171c7.679,-7.679 16.342,-14.325 25.742,-19.754c2.821,-1.629 6.429,-0.662 8.058,2.154l8.879,15.383c1.629,2.821 0.663,6.425 -2.158,8.058c-2.821,1.625 -6.429,0.658 -8.054,-2.158l-5.858,-10.142c-4.933,3.204 -9.617,6.8 -13.992,10.737l8.279,8.279c2.3,2.304 2.304,6.037 0,8.338c-5.85,5.854 -10.917,12.454 -15.054,19.621c-0.783,1.354 -2.071,2.346 -3.583,2.75c-0.504,0.133 -1.017,0.2 -1.525,0.2" style="fill:#f01f46;fill-rule:nonzero;"/><path d="M68.43,226.715c-2.604,0 -4.987,-1.738 -5.692,-4.371c-0.842,-3.146 1.025,-6.379 4.167,-7.221l11.621,-3.117c-1.096,-5.25 -1.8,-10.583 -2.1,-15.942l-12.029,0c-3.254,0 -5.896,-2.638 -5.896,-5.896c0,-10.858 1.425,-21.683 4.237,-32.171c0.842,-3.146 4.075,-5.013 7.221,-4.171l17.158,4.596c3.146,0.842 5.013,4.075 4.167,7.225c-0.842,3.146 -4.079,5.013 -7.221,4.167l-11.308,-3.029c-1.225,5.758 -1.996,11.608 -2.304,17.487l11.708,0c3.258,0 5.896,2.638 5.896,5.896c0,8.275 1.088,16.529 3.229,24.525c0.846,3.142 -1.021,6.379 -4.167,7.221l-17.158,4.6c-0.508,0.133 -1.025,0.2 -1.529,0.2" style="fill:#f01f46;fill-rule:nonzero;"/><path d="M123.599,298.612c-1,0 -2.017,-0.254 -2.942,-0.788c-2.825,-1.629 -3.788,-5.238 -2.158,-8.058l6.012,-10.417c-4.492,-2.938 -8.758,-6.208 -12.758,-9.787l-8.504,8.504c-1.104,1.104 -2.604,1.729 -4.171,1.729c-1.562,0 -3.062,-0.625 -4.167,-1.729c-7.679,-7.679 -14.325,-16.338 -19.754,-25.742c-1.629,-2.821 -0.663,-6.425 2.158,-8.054l15.383,-8.883c2.817,-1.625 6.425,-0.662 8.054,2.158c1.629,2.821 0.662,6.425 -2.158,8.054l-10.142,5.854c3.204,4.942 6.8,9.621 10.738,13.996l8.279,-8.279c2.304,-2.304 6.037,-2.304 8.342,0c5.854,5.85 12.454,10.917 19.621,15.058c2.821,1.629 3.787,5.233 2.158,8.05l-8.879,15.383c-1.092,1.892 -3.075,2.95 -5.113,2.95" style="fill:#f01f46;fill-rule:nonzero;"/><path d="M182.808,314.477c-10.858,0 -21.683,-1.425 -32.171,-4.238c-3.146,-0.842 -5.012,-4.075 -4.171,-7.221l4.596,-17.158c0.846,-3.142 4.075,-5.012 7.225,-4.167c3.146,0.842 5.013,4.075 4.167,7.221l-3.033,11.308c5.762,1.229 11.612,1.996 17.492,2.304l0,-11.708c0,-3.254 2.642,-5.896 5.896,-5.896c8.275,0 16.529,-1.087 24.521,-3.229c3.15,-0.846 6.383,1.025 7.225,4.167l4.596,17.158c0.842,3.146 -1.021,6.379 -4.171,7.221c-3.142,0.846 -6.375,-1.021 -7.217,-4.167l-3.117,-11.617c-5.25,1.096 -10.583,1.796 -15.942,2.096l0,12.025c0,3.258 -2.642,5.9 -5.896,5.9" style="fill:#f01f46;fill-rule:nonzero;"/><path d="M242.018,298.612c-2.037,0 -4.021,-1.058 -5.108,-2.95l-8.883,-15.379c-1.629,-2.821 -0.662,-6.425 2.158,-8.054c2.821,-1.629 6.425,-0.663 8.054,2.158l5.854,10.142c4.938,-3.208 9.621,-6.8 13.996,-10.742l-8.283,-8.279c-2.3,-2.304 -2.3,-6.033 0,-8.337c5.854,-5.854 10.921,-12.454 15.058,-19.625c1.629,-2.821 5.237,-3.783 8.054,-2.158l15.383,8.883c2.821,1.629 3.788,5.233 2.158,8.054c-1.629,2.821 -5.233,3.788 -8.054,2.158l-10.417,-6.017c-2.938,4.496 -6.208,8.763 -9.792,12.758l8.508,8.504c2.3,2.304 2.3,6.037 0,8.342c-7.679,7.675 -16.342,14.321 -25.746,19.754c-0.925,0.533 -1.942,0.788 -2.942,0.788" style="fill:#f01f46;fill-rule:nonzero;"/><path d="M297.186,226.715c-0.504,0 -1.021,-0.067 -1.529,-0.2l-17.158,-4.6c-3.146,-0.842 -5.012,-4.075 -4.167,-7.221c0.842,-3.146 4.071,-5.013 7.221,-4.167l11.308,3.029c1.225,-5.763 1.996,-11.608 2.304,-17.492l-11.708,0c-3.258,0 -5.896,-2.642 -5.896,-5.896c0,-8.275 -1.087,-16.529 -3.229,-24.521c-0.846,-3.15 1.021,-6.379 4.167,-7.225l17.158,-4.596c3.146,-0.846 6.379,1.025 7.225,4.171c0.838,3.146 -1.029,6.379 -4.171,7.221l-11.617,3.112c1.096,5.254 1.796,10.583 2.096,15.942l12.025,0c3.258,0 5.896,2.642 5.896,5.896c0,10.858 -1.425,21.683 -4.233,32.175c-0.704,2.633 -3.087,4.371 -5.692,4.371" style="fill:#f01f46;fill-rule:nonzero;"/><path d="M269.977,145.745c-2.038,0 -4.021,-1.058 -5.113,-2.95c-1.629,-2.821 -0.662,-6.425 2.158,-8.054l10.142,-5.854c-3.208,-4.942 -6.796,-9.621 -10.738,-13.996l-8.279,8.283c-2.304,2.3 -6.038,2.3 -8.338,0c-5.854,-5.854 -12.458,-10.921 -19.625,-15.058c-1.354,-0.783 -2.342,-2.071 -2.75,-3.583c-0.404,-1.508 -0.188,-3.117 0.592,-4.471l8.879,-15.383c1.629,-2.821 5.237,-3.783 8.058,-2.158c2.817,1.629 3.783,5.233 2.154,8.054l-6.012,10.417c4.492,2.937 8.754,6.208 12.758,9.792l8.5,-8.508c2.304,-2.304 6.038,-2.304 8.342,0c7.679,7.679 14.325,16.342 19.754,25.746c1.629,2.817 0.662,6.425 -2.158,8.054l-15.379,8.879c-0.929,0.537 -1.946,0.792 -2.946,0.792" style="fill:#f01f46;fill-rule:nonzero;"/><defs><linearGradient id="_Linear1" x1="0" y1="0" x2="1" y2="0" gradientUnits="userSpaceOnUse" gradientTransform="matrix(147.98967,0,0,147.98967,108.781047,190.170589)"><stop offset="0" style="stop-color:#00c0cf;stop-opacity:1"/><stop offset="1" style="stop-color:#04968e;stop-opacity:1"/></linearGradient><linearGradient id="_Linear2" x1="0" y1="0" x2="1" y2="0" gradientUnits="userSpaceOnUse" gradientTransform="matrix(68.447908,0,0,68.447908,108.8019,191.002702)"><stop offset="0" style="stop-color:#00c0cf;stop-opacity:1"/><stop offset="1" style="stop-color:#04968e;stop-opacity:1"/></linearGradient></defs></svg>