<?xml version="1.0" encoding="UTF-8" standalone="no"?><!DOCTYPE svg PUBLIC "-//W3C//DTD SVG 1.1//EN" "http://www.w3.org/Graphics/SVG/1.1/DTD/svg11.dtd"><svg width="100%" height="100%" viewBox="0 0 381 381" version="1.1" xmlns="http://www.w3.org/2000/svg" xmlns:xlink="http://www.w3.org/1999/xlink" xml:space="preserve" xmlns:serif="http://www.serif.com/" style="fill-rule:evenodd;clip-rule:evenodd;stroke-linejoin:round;stroke-miterlimit:2;"><rect x="0" y="0" width="380.337" height="380.337" style="fill:#f9a200;"/><path d="M153.879,291.142c20.275,0 32.554,-26.712 12.525,-46.746c-6.533,-6.533 -13.062,-13.062 -19.596,-19.592c-11.721,-11.725 -18.792,-20.988 -41.238,-20.988c-15.746,17.121 -21.829,37.525 -21.829,50.075l20.583,0l0,37.25l49.554,0Z" style="fill:#d46b5c;"/><path d="M171.07,137.9l0,-53.121c0,-12.054 -6.604,-22.646 -16.375,-28.329c-9.771,5.683 -16.371,16.275 -16.371,28.329l0,48.083c11.396,0 22.396,1.763 32.746,5.037" style="fill:#67ccd1;"/><path d="M201.64,153.117l16.417,-50.521c3.725,-11.467 0.717,-23.579 -6.821,-32.004c-11.046,2.388 -20.6,10.417 -24.325,21.883l-14.858,45.729c10.842,3.521 20.763,8.6 29.588,14.912" style="fill:#67ccd1;"/><path d="M226.015,177.034l31.221,-42.975c7.087,-9.754 7.967,-22.204 3.408,-32.542c-11.246,-1.146 -22.817,3.538 -29.9,13.296l-28.262,38.896c9.221,6.7 17.083,14.596 23.533,23.325" style="fill:#67ccd1;"/><path d="M241.805,207.313l42.975,-31.221c9.75,-7.088 14.442,-18.654 13.296,-29.9c-10.342,-4.562 -22.788,-3.679 -32.546,3.404l-38.896,28.263c6.696,9.225 11.738,19.158 15.171,29.454" style="fill:#67ccd1;"/><path d="M247.464,240.989l50.521,-16.417c11.467,-3.725 19.496,-13.275 21.883,-24.325c-8.425,-7.533 -20.538,-10.542 -32.004,-6.817l-45.729,14.858c3.525,10.842 5.246,21.85 5.329,32.7" style="fill:#67ccd1;"/><path d="M247.478,274.767l48.083,0c12.054,0 22.646,-6.604 28.329,-16.371c-5.688,-9.771 -16.275,-16.375 -28.333,-16.375l-48.079,0l0,32.746Z" style="fill:#67ccd1;"/><path d="M171.07,137.9l0,-28.337c-10.704,-2.65 -21.7,-3.992 -32.746,-3.992l0,27.292c11.396,0 22.396,1.762 32.746,5.037" style="fill:#27a2cc;"/><path d="M201.64,153.117l8.733,-26.883c-9.258,-5.783 -19.275,-10.5 -29.892,-13.967l-8.429,25.938c10.842,3.521 20.763,8.6 29.588,14.912" style="fill:#27a2cc;"/><path d="M226.015,177.034l16.596,-22.838c-7.1,-8.417 -15.204,-15.979 -24.142,-22.496l-15.988,22.008c9.221,6.7 17.083,14.596 23.533,23.325" style="fill:#27a2cc;"/><path d="M241.805,207.313l22.9,-16.637c-4.192,-10.262 -9.608,-19.925 -16.071,-28.804l-22.004,15.988c6.7,9.225 11.742,19.158 15.175,29.454" style="fill:#27a2cc;"/><path d="M247.464,240.989l26.954,-8.758c-0.275,-3.817 -0.708,-7.625 -1.3,-11.408c-1.129,-7.175 -2.825,-14.179 -5.042,-20.963l-25.942,8.429c3.525,10.842 5.246,21.85 5.329,32.7" style="fill:#27a2cc;"/><rect x="247.479" y="242.021" width="27.287" height="32.746" style="fill:#27a2cc;"/><path d="M247.478,296.601l0,-54.579c0,-0.346 0,-0.692 -0.004,-1.037l-0.008,0.004c-0.046,-5.283 -0.471,-10.604 -1.308,-15.925c-6.475,-41.162 -36.129,-74.842 -75.088,-87.162c-10.35,-3.275 -21.35,-5.042 -32.75,-5.042l0,27.292c45.029,0 81.871,36.838 81.871,81.871l0,27.287c15.071,0 27.287,12.221 27.287,27.292Z" style="fill:#fdcb50;"/><path d="M83.74,291.142c0,18.012 14.737,32.746 32.746,32.746l103.704,0l0,-81.867c0,-45.029 -36.842,-81.871 -81.871,-81.871l-40.933,0c-27.013,0 -40.933,16.65 -40.933,43.667l49.117,0c22.446,0 29.521,9.263 41.242,20.988c6.529,6.529 13.062,13.062 19.592,19.592c20.029,20.033 7.75,46.746 -12.525,46.746l-70.138,0Z" style="fill:#b1d952;"/><path d="M156.682,201.826c12.733,5.458 18.629,20.204 13.171,32.942c-5.458,12.729 -20.204,18.625 -32.938,13.167c-12.733,-5.458 -18.633,-20.204 -13.175,-32.938c5.463,-12.733 20.208,-18.629 32.942,-13.171" style="fill:#b1d952;"/><path d="M239.441,277.298c10.654,10.654 10.654,27.933 0,38.588c-10.654,10.658 -27.933,10.658 -38.588,0c-10.658,-10.654 -10.658,-27.933 0,-38.588c10.654,-10.654 27.933,-10.654 38.588,0" style="fill:#fd6050;"/><path d="M220.192,302.037c-3.004,0 -5.438,-2.433 -5.438,-5.438c0,-3.004 2.429,-5.433 5.433,-5.433l0.004,0c3,0 5.438,2.429 5.438,5.433c0,3.004 -2.438,5.438 -5.438,5.438" style="fill:#fff;fill-rule:nonzero;"/></svg>