<?xml version="1.0" encoding="UTF-8" standalone="no"?><!DOCTYPE svg PUBLIC "-//W3C//DTD SVG 1.1//EN" "http://www.w3.org/Graphics/SVG/1.1/DTD/svg11.dtd"><svg width="100%" height="100%" viewBox="0 0 389 381" version="1.1" xmlns="http://www.w3.org/2000/svg" xmlns:xlink="http://www.w3.org/1999/xlink" xml:space="preserve" xmlns:serif="http://www.serif.com/" style="fill-rule:evenodd;clip-rule:evenodd;stroke-linejoin:round;stroke-miterlimit:2;"><rect x="0" y="0" width="388.4" height="380.337" style="fill:#fc8afc;"/><path d="M295.162,89.174c55.779,55.779 55.779,146.217 0,201.992c-55.775,55.779 -146.213,55.779 -201.992,0c-55.779,-55.775 -55.779,-146.213 0,-201.992c55.779,-55.775 146.217,-55.775 201.992,0" style="fill:#fde0be;"/><path d="M272.491,111.846c43.254,43.258 43.254,113.392 0,156.65c-43.254,43.254 -113.392,43.254 -156.646,0c-43.258,-43.258 -43.258,-113.392 0,-156.65c43.254,-43.254 113.392,-43.254 156.646,0" style="fill:#fdcb50;"/><path d="M157.222,52.2l8.304,30.979c18.179,-4.892 37.854,-5.204 57.35,0.017l8.3,-30.975c-25.137,-6.733 -50.508,-6.329 -73.954,-0.021" style="fill:#f7b073;"/><path d="M56.223,153.209l30.983,8.3c4.858,-18.192 14.421,-35.387 28.688,-49.658l-22.671,-22.675c-18.404,18.4 -30.738,40.575 -37,64.033" style="fill:#f7b073;"/><path d="M93.2,291.179l22.679,-22.679c-13.325,-13.3 -23.438,-30.183 -28.658,-49.675l-30.979,8.3c6.737,25.133 19.775,46.904 36.958,64.054" style="fill:#f7b073;"/><path d="M231.177,328.144l-8.304,-30.983c-18.179,4.892 -37.854,5.204 -57.35,-0.017l-8.3,30.975c25.137,6.738 50.508,6.329 73.954,0.025" style="fill:#f7b073;"/><path d="M231.507,167.182c12.704,20.55 6.337,47.513 -14.213,60.213c-20.554,12.708 -47.513,6.346 -60.217,-14.208c-12.704,-20.554 -6.342,-47.513 14.213,-60.217c20.554,-12.704 47.508,-6.342 60.217,14.212" style="fill:#f7b073;"/><path d="M227.544,156.826l-33.346,-76.833l-33.342,76.833l2.421,2.421c7.912,-7.912 18.846,-12.808 30.921,-12.808c12.079,0 23.008,4.896 30.925,12.808l2.421,-2.421Z" style="fill:#fd8f01;"/><path d="M160.855,223.515l33.346,76.838l33.342,-76.838l-2.421,-2.421c-7.917,7.912 -18.846,12.808 -30.921,12.808c-12.079,0 -23.008,-4.896 -30.925,-12.808l-2.421,2.421Z" style="fill:#fd8f01;"/><path d="M227.544,223.515l76.833,-33.346l-76.833,-33.342l-2.421,2.421c7.912,7.912 12.808,18.846 12.808,30.921c0,12.079 -4.896,23.008 -12.808,30.925l2.421,2.421Z" style="fill:#fd8f01;"/><path d="M206.963,187.08c1.667,7.05 -2.696,14.117 -9.746,15.783c-7.05,1.662 -14.117,-2.7 -15.783,-9.75c-1.667,-7.05 2.696,-14.117 9.75,-15.783c7.046,-1.667 14.113,2.7 15.779,9.75" style="fill:#fde0be;"/><path d="M181.191,300.189c-55.05,-6.442 -97.775,-53.238 -97.775,-110.017c0,-50.287 33.508,-92.742 79.408,-106.275c-17.442,27.804 -27.546,60.692 -27.546,95.933c0,46.229 17.363,88.4 45.913,120.358" style="fill:#fd8f01;"/><path d="M160.855,156.826l-25.162,10.921l-42.929,22.425l45.721,23.633l22.371,9.708l2.421,-2.421c-7.912,-7.917 -12.808,-18.846 -12.808,-30.921c0,-12.075 4.896,-23.008 12.808,-30.925l-2.421,-2.421Z" style="fill:#fd8f01;"/><path d="M135.694,167.747l-51.675,22.425l54.463,23.633c-2.092,-11.004 -3.204,-22.354 -3.204,-33.971c0,-4.062 0.15,-8.092 0.417,-12.087" style="fill:#fd6050;"/></svg>